<?xml version="1.0" encoding="UTF-8" standalone="no"?>
<!DOCTYPE svg PUBLIC "-//W3C//DTD SVG 1.1//EN"
 "http://www.w3.org/Graphics/SVG/1.1/DTD/svg11.dtd">
<!-- Generated by graphviz version 2.43.0 (0)
 -->
<!-- Title: G Pages: 1 -->
<svg width="1420pt" height="1982pt"
 viewBox="0.00 0.00 1420.20 1981.77" xmlns="http://www.w3.org/2000/svg" xmlns:xlink="http://www.w3.org/1999/xlink">
<g id="graph0" class="graph" transform="scale(1 1) rotate(0) translate(21.6 1960.17)">
<title>G</title>
<polygon fill="#111111" stroke="transparent" points="-21.6,21.6 -21.6,-1960.17 1398.6,-1960.17 1398.6,21.6 -21.6,21.6"/>
<!-- App.tsx -->
<g id="node1" class="node">
<title>App.tsx</title>
<path fill="none" stroke="#c6c5fe" d="M160.33,-884.11C160.33,-884.11 113.67,-884.11 113.67,-884.11 109.83,-884.11 106,-880.28 106,-876.44 106,-876.44 106,-868.78 106,-868.78 106,-864.94 109.83,-861.11 113.67,-861.11 113.67,-861.11 160.33,-861.11 160.33,-861.11 164.17,-861.11 168,-864.94 168,-868.78 168,-868.78 168,-876.44 168,-876.44 168,-880.28 164.17,-884.11 160.33,-884.11"/>
<text text-anchor="middle" x="137" y="-868.91" font-family="Arial" font-size="14.00" fill="#c6c5fe">App.tsx</text>
</g>
<!-- components/AuthScreen.tsx -->
<g id="node2" class="node">
<title>components/AuthScreen.tsx</title>
<path fill="none" stroke="#c6c5fe" d="M553.83,-954.11C553.83,-954.11 383.17,-954.11 383.17,-954.11 379.33,-954.11 375.5,-950.28 375.5,-946.44 375.5,-946.44 375.5,-938.78 375.5,-938.78 375.5,-934.94 379.33,-931.11 383.17,-931.11 383.17,-931.11 553.83,-931.11 553.83,-931.11 557.67,-931.11 561.5,-934.94 561.5,-938.78 561.5,-938.78 561.5,-946.44 561.5,-946.44 561.5,-950.28 557.67,-954.11 553.83,-954.11"/>
<text text-anchor="middle" x="468.5" y="-938.91" font-family="Arial" font-size="14.00" fill="#c6c5fe">components/AuthScreen.tsx</text>
</g>
<!-- App.tsx&#45;&gt;components/AuthScreen.tsx -->
<g id="edge1" class="edge">
<title>App.tsx&#45;&gt;components/AuthScreen.tsx</title>
<path fill="none" stroke="#757575" d="M168.26,-881.2C202.47,-890.71 259.93,-906.09 310,-916.61 332.33,-921.3 356.58,-925.66 379.21,-929.42"/>
<polygon fill="#757575" stroke="#757575" points="378.71,-932.89 389.14,-931.05 379.84,-925.98 378.71,-932.89"/>
</g>
<!-- components/ProfileSetup.tsx -->
<g id="node3" class="node">
<title>components/ProfileSetup.tsx</title>
<path fill="none" stroke="#c6c5fe" d="M555.33,-754.11C555.33,-754.11 381.67,-754.11 381.67,-754.11 377.83,-754.11 374,-750.28 374,-746.44 374,-746.44 374,-738.78 374,-738.78 374,-734.94 377.83,-731.11 381.67,-731.11 381.67,-731.11 555.33,-731.11 555.33,-731.11 559.17,-731.11 563,-734.94 563,-738.78 563,-738.78 563,-746.44 563,-746.44 563,-750.28 559.17,-754.11 555.33,-754.11"/>
<text text-anchor="middle" x="468.5" y="-738.91" font-family="Arial" font-size="14.00" fill="#c6c5fe">components/ProfileSetup.tsx</text>
</g>
<!-- App.tsx&#45;&gt;components/ProfileSetup.tsx -->
<g id="edge2" class="edge">
<title>App.tsx&#45;&gt;components/ProfileSetup.tsx</title>
<path fill="none" stroke="#757575" d="M153.12,-860.87C181.92,-839.15 247.33,-792.82 310,-769.61 327.09,-763.28 345.78,-758.42 364.13,-754.7"/>
<polygon fill="#757575" stroke="#757575" points="364.82,-758.13 373.97,-752.79 363.49,-751.25 364.82,-758.13"/>
</g>
<!-- lib/ThemeContext.tsx -->
<g id="node4" class="node">
<title>lib/ThemeContext.tsx</title>
<path fill="none" stroke="#cfffac" d="M1076.33,-1218.11C1076.33,-1218.11 947.67,-1218.11 947.67,-1218.11 943.83,-1218.11 940,-1214.28 940,-1210.44 940,-1210.44 940,-1202.78 940,-1202.78 940,-1198.94 943.83,-1195.11 947.67,-1195.11 947.67,-1195.11 1076.33,-1195.11 1076.33,-1195.11 1080.17,-1195.11 1084,-1198.94 1084,-1202.78 1084,-1202.78 1084,-1210.44 1084,-1210.44 1084,-1214.28 1080.17,-1218.11 1076.33,-1218.11"/>
<text text-anchor="middle" x="1012" y="-1202.91" font-family="Arial" font-size="14.00" fill="#cfffac">lib/ThemeContext.tsx</text>
</g>
<!-- App.tsx&#45;&gt;lib/ThemeContext.tsx -->
<g id="edge3" class="edge">
<title>App.tsx&#45;&gt;lib/ThemeContext.tsx</title>
<path fill="none" stroke="#757575" d="M168.1,-872.85C302.54,-874.15 844.03,-882.14 904,-926.61 989.46,-989.99 1006.67,-1130.73 1010.13,-1184.84"/>
<polygon fill="#757575" stroke="#757575" points="1006.64,-1185.21 1010.68,-1195.01 1013.63,-1184.83 1006.64,-1185.21"/>
</g>
<!-- lib/sync.ts -->
<g id="node5" class="node">
<title>lib/sync.ts</title>
<path fill="none" stroke="#c6c5fe" d="M1042.33,-236.11C1042.33,-236.11 981.67,-236.11 981.67,-236.11 977.83,-236.11 974,-232.28 974,-228.44 974,-228.44 974,-220.78 974,-220.78 974,-216.94 977.83,-213.11 981.67,-213.11 981.67,-213.11 1042.33,-213.11 1042.33,-213.11 1046.17,-213.11 1050,-216.94 1050,-220.78 1050,-220.78 1050,-228.44 1050,-228.44 1050,-232.28 1046.17,-236.11 1042.33,-236.11"/>
<text text-anchor="middle" x="1012" y="-220.91" font-family="Arial" font-size="14.00" fill="#c6c5fe">lib/sync.ts</text>
</g>
<!-- App.tsx&#45;&gt;lib/sync.ts -->
<g id="edge4" class="edge">
<title>App.tsx&#45;&gt;lib/sync.ts</title>
<path fill="none" stroke="#757575" d="M139.29,-861.06C148.55,-780.4 207.41,-301.68 310,-206.61 407.37,-116.39 778.17,-101.35 904,-143.61 940.27,-155.79 974.03,-185.67 993.58,-205.53"/>
<polygon fill="#757575" stroke="#757575" points="991.14,-208.05 1000.59,-212.85 996.2,-203.21 991.14,-208.05"/>
</g>
<!-- pages/IndexPage.tsx -->
<g id="node6" class="node">
<title>pages/IndexPage.tsx</title>
<path fill="none" stroke="#c6c5fe" d="M532.33,-1259.11C532.33,-1259.11 404.67,-1259.11 404.67,-1259.11 400.83,-1259.11 397,-1255.28 397,-1251.44 397,-1251.44 397,-1243.78 397,-1243.78 397,-1239.94 400.83,-1236.11 404.67,-1236.11 404.67,-1236.11 532.33,-1236.11 532.33,-1236.11 536.17,-1236.11 540,-1239.94 540,-1243.78 540,-1243.78 540,-1251.44 540,-1251.44 540,-1255.28 536.17,-1259.11 532.33,-1259.11"/>
<text text-anchor="middle" x="468.5" y="-1243.91" font-family="Arial" font-size="14.00" fill="#c6c5fe">pages/IndexPage.tsx</text>
</g>
<!-- App.tsx&#45;&gt;pages/IndexPage.tsx -->
<g id="edge5" class="edge">
<title>App.tsx&#45;&gt;pages/IndexPage.tsx</title>
<path fill="none" stroke="#757575" d="M166.02,-884.19C195.4,-897.33 241.71,-920.98 274,-951.61 365.03,-1037.96 434.04,-1175.09 458.17,-1226.89"/>
<polygon fill="#757575" stroke="#757575" points="455.04,-1228.45 462.39,-1236.07 461.4,-1225.52 455.04,-1228.45"/>
</g>
<!-- types/profile.ts -->
<g id="node7" class="node">
<title>types/profile.ts</title>
<path fill="none" stroke="#cfffac" d="M827.83,-754.11C827.83,-754.11 739.17,-754.11 739.17,-754.11 735.33,-754.11 731.5,-750.28 731.5,-746.44 731.5,-746.44 731.5,-738.78 731.5,-738.78 731.5,-734.94 735.33,-731.11 739.17,-731.11 739.17,-731.11 827.83,-731.11 827.83,-731.11 831.67,-731.11 835.5,-734.94 835.5,-738.78 835.5,-738.78 835.5,-746.44 835.5,-746.44 835.5,-750.28 831.67,-754.11 827.83,-754.11"/>
<text text-anchor="middle" x="783.5" y="-738.91" font-family="Arial" font-size="14.00" fill="#cfffac">types/profile.ts</text>
</g>
<!-- App.tsx&#45;&gt;types/profile.ts -->
<g id="edge6" class="edge">
<title>App.tsx&#45;&gt;types/profile.ts</title>
<path fill="none" stroke="#757575" d="M161.29,-861.06C193.76,-845.46 254.89,-817.97 310,-803.61 311.24,-803.29 593.6,-766.92 721.18,-750.5"/>
<polygon fill="#757575" stroke="#757575" points="721.72,-753.96 731.2,-749.21 720.83,-747.02 721.72,-753.96"/>
</g>
<!-- components/AuthScreen.tsx&#45;&gt;lib/ThemeContext.tsx -->
<g id="edge12" class="edge">
<title>components/AuthScreen.tsx&#45;&gt;lib/ThemeContext.tsx</title>
<path fill="none" stroke="#757575" d="M561.84,-935.05C672.71,-927.86 850.44,-922.92 904,-959.61 981.6,-1012.76 1003.32,-1135.02 1009.06,-1184.86"/>
<polygon fill="#757575" stroke="#757575" points="1005.59,-1185.28 1010.11,-1194.87 1012.55,-1184.56 1005.59,-1185.28"/>
</g>
<!-- components/AuthScreen.tsx&#45;&gt;types/profile.ts -->
<g id="edge13" class="edge">
<title>components/AuthScreen.tsx&#45;&gt;types/profile.ts</title>
<path fill="none" stroke="#757575" d="M498.44,-931C533.12,-915.8 591.04,-886.11 627,-844.61 653.06,-814.53 631.59,-787.06 663,-762.61 679.4,-749.84 700.94,-743.95 721.21,-741.53"/>
<polygon fill="#757575" stroke="#757575" points="721.72,-745 731.35,-740.58 721.07,-738.03 721.72,-745"/>
</g>
<!-- components/ProfileSetup.tsx&#45;&gt;types/profile.ts -->
<g id="edge30" class="edge">
<title>components/ProfileSetup.tsx&#45;&gt;types/profile.ts</title>
<path fill="none" stroke="#757575" d="M563.41,-742.61C614.53,-742.61 676.32,-742.61 721.23,-742.61"/>
<polygon fill="#757575" stroke="#757575" points="721.4,-746.11 731.4,-742.61 721.4,-739.11 721.4,-746.11"/>
</g>
<!-- lib/supabase.ts -->
<g id="node21" class="node">
<title>lib/supabase.ts</title>
<path fill="none" stroke="#cfffac" d="M1057.83,-538.11C1057.83,-538.11 966.17,-538.11 966.17,-538.11 962.33,-538.11 958.5,-534.28 958.5,-530.44 958.5,-530.44 958.5,-522.78 958.5,-522.78 958.5,-518.94 962.33,-515.11 966.17,-515.11 966.17,-515.11 1057.83,-515.11 1057.83,-515.11 1061.67,-515.11 1065.5,-518.94 1065.5,-522.78 1065.5,-522.78 1065.5,-530.44 1065.5,-530.44 1065.5,-534.28 1061.67,-538.11 1057.83,-538.11"/>
<text text-anchor="middle" x="1012" y="-522.91" font-family="Arial" font-size="14.00" fill="#cfffac">lib/supabase.ts</text>
</g>
<!-- components/ProfileSetup.tsx&#45;&gt;lib/supabase.ts -->
<g id="edge29" class="edge">
<title>components/ProfileSetup.tsx&#45;&gt;lib/supabase.ts</title>
<path fill="none" stroke="#757575" d="M480.34,-730.8C508.5,-699.52 584.71,-611 627,-524.61 652.04,-473.45 617.42,-435.76 663,-401.61 705.86,-369.5 860.37,-370.55 904,-401.61 943.84,-429.98 904.63,-471.82 940,-505.61 942.77,-508.25 945.85,-510.56 949.13,-512.58"/>
<polygon fill="#757575" stroke="#757575" points="947.75,-515.81 958.24,-517.29 950.96,-509.59 947.75,-515.81"/>
</g>
<!-- lib/mockData.ts -->
<g id="node42" class="node">
<title>lib/mockData.ts</title>
<path fill="none" stroke="#c6c5fe" d="M1222.33,-236.11C1222.33,-236.11 1127.67,-236.11 1127.67,-236.11 1123.83,-236.11 1120,-232.28 1120,-228.44 1120,-228.44 1120,-220.78 1120,-220.78 1120,-216.94 1123.83,-213.11 1127.67,-213.11 1127.67,-213.11 1222.33,-213.11 1222.33,-213.11 1226.17,-213.11 1230,-216.94 1230,-220.78 1230,-220.78 1230,-228.44 1230,-228.44 1230,-232.28 1226.17,-236.11 1222.33,-236.11"/>
<text text-anchor="middle" x="1175" y="-220.91" font-family="Arial" font-size="14.00" fill="#c6c5fe">lib/mockData.ts</text>
</g>
<!-- lib/sync.ts&#45;&gt;lib/mockData.ts -->
<g id="edge65" class="edge">
<title>lib/sync.ts&#45;&gt;lib/mockData.ts</title>
<path fill="none" stroke="#757575" d="M1050.34,-224.61C1067.98,-224.61 1089.55,-224.61 1109.7,-224.61"/>
<polygon fill="#757575" stroke="#757575" points="1109.77,-228.11 1119.77,-224.61 1109.77,-221.11 1109.77,-228.11"/>
</g>
<!-- pages/IndexPage.tsx&#45;&gt;lib/ThemeContext.tsx -->
<g id="edge89" class="edge">
<title>pages/IndexPage.tsx&#45;&gt;lib/ThemeContext.tsx</title>
<path fill="none" stroke="#757575" d="M472.01,-1259.24C483.4,-1308.74 535.26,-1502.66 663,-1575.61 709.51,-1602.17 861.65,-1608.39 904,-1575.61 954.47,-1536.55 922.58,-1498 940,-1436.61 961.88,-1359.48 990.84,-1268.78 1003.98,-1228.17"/>
<polygon fill="#757575" stroke="#757575" points="1007.35,-1229.12 1007.11,-1218.52 1000.7,-1226.96 1007.35,-1229.12"/>
</g>
<!-- pages/IndexPage.tsx&#45;&gt;lib/sync.ts -->
<g id="edge90" class="edge">
<title>pages/IndexPage.tsx&#45;&gt;lib/sync.ts</title>
<path fill="none" stroke="#757575" d="M478.52,-1235.98C506.77,-1198.78 593.67,-1078.32 627,-962.61 646.75,-894.06 618.28,-377.19 663,-321.61 672.62,-309.66 870.83,-259.31 963.72,-236.24"/>
<polygon fill="#757575" stroke="#757575" points="964.85,-239.57 973.71,-233.77 963.16,-232.78 964.85,-239.57"/>
</g>
<!-- components/AdvisoriesPanel.tsx -->
<g id="node8" class="node">
<title>components/AdvisoriesPanel.tsx</title>
<path fill="none" stroke="#c6c5fe" d="M881.83,-1566.11C881.83,-1566.11 685.17,-1566.11 685.17,-1566.11 681.33,-1566.11 677.5,-1562.28 677.5,-1558.44 677.5,-1558.44 677.5,-1550.78 677.5,-1550.78 677.5,-1546.94 681.33,-1543.11 685.17,-1543.11 685.17,-1543.11 881.83,-1543.11 881.83,-1543.11 885.67,-1543.11 889.5,-1546.94 889.5,-1550.78 889.5,-1550.78 889.5,-1558.44 889.5,-1558.44 889.5,-1562.28 885.67,-1566.11 881.83,-1566.11"/>
<text text-anchor="middle" x="783.5" y="-1550.91" font-family="Arial" font-size="14.00" fill="#c6c5fe">components/AdvisoriesPanel.tsx</text>
</g>
<!-- pages/IndexPage.tsx&#45;&gt;components/AdvisoriesPanel.tsx -->
<g id="edge69" class="edge">
<title>pages/IndexPage.tsx&#45;&gt;components/AdvisoriesPanel.tsx</title>
<path fill="none" stroke="#757575" d="M473.52,-1259.4C489.4,-1303.99 552.32,-1463.4 663,-1534.61 665.32,-1536.11 667.73,-1537.5 670.19,-1538.8"/>
<polygon fill="#757575" stroke="#757575" points="668.81,-1542.02 679.35,-1543.11 671.79,-1535.69 668.81,-1542.02"/>
</g>
<!-- components/AlertBanner.tsx -->
<g id="node9" class="node">
<title>components/AlertBanner.tsx</title>
<path fill="none" stroke="#c6c5fe" d="M868.83,-598.11C868.83,-598.11 698.17,-598.11 698.17,-598.11 694.33,-598.11 690.5,-594.28 690.5,-590.44 690.5,-590.44 690.5,-582.78 690.5,-582.78 690.5,-578.94 694.33,-575.11 698.17,-575.11 698.17,-575.11 868.83,-575.11 868.83,-575.11 872.67,-575.11 876.5,-578.94 876.5,-582.78 876.5,-582.78 876.5,-590.44 876.5,-590.44 876.5,-594.28 872.67,-598.11 868.83,-598.11"/>
<text text-anchor="middle" x="783.5" y="-582.91" font-family="Arial" font-size="14.00" fill="#c6c5fe">components/AlertBanner.tsx</text>
</g>
<!-- pages/IndexPage.tsx&#45;&gt;components/AlertBanner.tsx -->
<g id="edge70" class="edge">
<title>pages/IndexPage.tsx&#45;&gt;components/AlertBanner.tsx</title>
<path fill="none" stroke="#757575" d="M477.88,-1236.11C504.6,-1198.79 588.28,-1076.93 627,-962.61 661.74,-860.03 617.22,-819.76 663,-721.61 685.78,-672.77 731.98,-628.55 759.79,-604.84"/>
<polygon fill="#757575" stroke="#757575" points="762.35,-607.26 767.78,-598.16 757.86,-601.89 762.35,-607.26"/>
</g>
<!-- components/AlertHistoryPanel.tsx -->
<g id="node11" class="node">
<title>components/AlertHistoryPanel.tsx</title>
<path fill="none" stroke="#c6c5fe" d="M885.83,-1846.11C885.83,-1846.11 681.17,-1846.11 681.17,-1846.11 677.33,-1846.11 673.5,-1842.28 673.5,-1838.44 673.5,-1838.44 673.5,-1830.78 673.5,-1830.78 673.5,-1826.94 677.33,-1823.11 681.17,-1823.11 681.17,-1823.11 885.83,-1823.11 885.83,-1823.11 889.67,-1823.11 893.5,-1826.94 893.5,-1830.78 893.5,-1830.78 893.5,-1838.44 893.5,-1838.44 893.5,-1842.28 889.67,-1846.11 885.83,-1846.11"/>
<text text-anchor="middle" x="783.5" y="-1830.91" font-family="Arial" font-size="14.00" fill="#c6c5fe">components/AlertHistoryPanel.tsx</text>
</g>
<!-- pages/IndexPage.tsx&#45;&gt;components/AlertHistoryPanel.tsx -->
<g id="edge71" class="edge">
<title>pages/IndexPage.tsx&#45;&gt;components/AlertHistoryPanel.tsx</title>
<path fill="none" stroke="#757575" d="M474.33,-1259.34C494.68,-1309.02 574.74,-1507.16 627,-1674.61 646.14,-1735.94 615.66,-1771.17 663,-1814.61 663.98,-1815.51 664.99,-1816.38 666.01,-1817.21"/>
<polygon fill="#757575" stroke="#757575" points="664.11,-1820.16 674.31,-1823.03 668.13,-1814.43 664.11,-1820.16"/>
</g>
<!-- components/Card.tsx -->
<g id="node12" class="node">
<title>components/Card.tsx</title>
<path fill="none" stroke="#c6c5fe" d="M848.33,-1687.11C848.33,-1687.11 718.67,-1687.11 718.67,-1687.11 714.83,-1687.11 711,-1683.28 711,-1679.44 711,-1679.44 711,-1671.78 711,-1671.78 711,-1667.94 714.83,-1664.11 718.67,-1664.11 718.67,-1664.11 848.33,-1664.11 848.33,-1664.11 852.17,-1664.11 856,-1667.94 856,-1671.78 856,-1671.78 856,-1679.44 856,-1679.44 856,-1683.28 852.17,-1687.11 848.33,-1687.11"/>
<text text-anchor="middle" x="783.5" y="-1671.91" font-family="Arial" font-size="14.00" fill="#c6c5fe">components/Card.tsx</text>
</g>
<!-- pages/IndexPage.tsx&#45;&gt;components/Card.tsx -->
<g id="edge72" class="edge">
<title>pages/IndexPage.tsx&#45;&gt;components/Card.tsx</title>
<path fill="none" stroke="#757575" d="M471.13,-1259.43C479.44,-1314.69 522.25,-1549.3 663,-1655.61 674.01,-1663.92 687.22,-1669.29 700.78,-1672.68"/>
<polygon fill="#757575" stroke="#757575" points="700.18,-1676.13 710.69,-1674.8 701.65,-1669.28 700.18,-1676.13"/>
</g>
<!-- components/CategorizedMap.tsx -->
<g id="node13" class="node">
<title>components/CategorizedMap.tsx</title>
<path fill="none" stroke="#c6c5fe" d="M883.33,-795.11C883.33,-795.11 683.67,-795.11 683.67,-795.11 679.83,-795.11 676,-791.28 676,-787.44 676,-787.44 676,-779.78 676,-779.78 676,-775.94 679.83,-772.11 683.67,-772.11 683.67,-772.11 883.33,-772.11 883.33,-772.11 887.17,-772.11 891,-775.94 891,-779.78 891,-779.78 891,-787.44 891,-787.44 891,-791.28 887.17,-795.11 883.33,-795.11"/>
<text text-anchor="middle" x="783.5" y="-779.91" font-family="Arial" font-size="14.00" fill="#c6c5fe">components/CategorizedMap.tsx</text>
</g>
<!-- pages/IndexPage.tsx&#45;&gt;components/CategorizedMap.tsx -->
<g id="edge73" class="edge">
<title>pages/IndexPage.tsx&#45;&gt;components/CategorizedMap.tsx</title>
<path fill="none" stroke="#757575" d="M477.53,-1235.98C503.2,-1198.29 584.06,-1075.41 627,-962.61 652.78,-894.9 610.33,-853.37 663,-803.61 664.34,-802.34 665.73,-801.14 667.16,-800"/>
<polygon fill="#757575" stroke="#757575" points="669.52,-802.63 675.8,-794.1 665.57,-796.85 669.52,-802.63"/>
</g>
<!-- components/EmergencyHelpline.tsx -->
<g id="node15" class="node">
<title>components/EmergencyHelpline.tsx</title>
<path fill="none" stroke="#c6c5fe" d="M892.33,-1525.11C892.33,-1525.11 674.67,-1525.11 674.67,-1525.11 670.83,-1525.11 667,-1521.28 667,-1517.44 667,-1517.44 667,-1509.78 667,-1509.78 667,-1505.94 670.83,-1502.11 674.67,-1502.11 674.67,-1502.11 892.33,-1502.11 892.33,-1502.11 896.17,-1502.11 900,-1505.94 900,-1509.78 900,-1509.78 900,-1517.44 900,-1517.44 900,-1521.28 896.17,-1525.11 892.33,-1525.11"/>
<text text-anchor="middle" x="783.5" y="-1509.91" font-family="Arial" font-size="14.00" fill="#c6c5fe">components/EmergencyHelpline.tsx</text>
</g>
<!-- pages/IndexPage.tsx&#45;&gt;components/EmergencyHelpline.tsx -->
<g id="edge74" class="edge">
<title>pages/IndexPage.tsx&#45;&gt;components/EmergencyHelpline.tsx</title>
<path fill="none" stroke="#757575" d="M474.8,-1259.37C493.69,-1299.78 562.03,-1433.76 663,-1493.61 665.67,-1495.19 668.44,-1496.66 671.27,-1498.02"/>
<polygon fill="#757575" stroke="#757575" points="669.96,-1501.27 680.53,-1502.01 672.73,-1494.84 669.96,-1501.27"/>
</g>
<!-- components/ExplainabilityPanel.tsx -->
<g id="node16" class="node">
<title>components/ExplainabilityPanel.tsx</title>
<path fill="none" stroke="#c6c5fe" d="M890.33,-836.11C890.33,-836.11 676.67,-836.11 676.67,-836.11 672.83,-836.11 669,-832.28 669,-828.44 669,-828.44 669,-820.78 669,-820.78 669,-816.94 672.83,-813.11 676.67,-813.11 676.67,-813.11 890.33,-813.11 890.33,-813.11 894.17,-813.11 898,-816.94 898,-820.78 898,-820.78 898,-828.44 898,-828.44 898,-832.28 894.17,-836.11 890.33,-836.11"/>
<text text-anchor="middle" x="783.5" y="-820.91" font-family="Arial" font-size="14.00" fill="#c6c5fe">components/ExplainabilityPanel.tsx</text>
</g>
<!-- pages/IndexPage.tsx&#45;&gt;components/ExplainabilityPanel.tsx -->
<g id="edge75" class="edge">
<title>pages/IndexPage.tsx&#45;&gt;components/ExplainabilityPanel.tsx</title>
<path fill="none" stroke="#757575" d="M476.54,-1235.98C500.76,-1196.19 583.61,-1062.31 663,-959.61 696.34,-916.48 739.62,-869.56 763.89,-843.96"/>
<polygon fill="#757575" stroke="#757575" points="766.7,-846.08 771.06,-836.43 761.63,-841.26 766.7,-846.08"/>
</g>
<!-- components/FieldWorkerLogistics.tsx -->
<g id="node17" class="node">
<title>components/FieldWorkerLogistics.tsx</title>
<path fill="none" stroke="#c6c5fe" d="M896.33,-1484.11C896.33,-1484.11 670.67,-1484.11 670.67,-1484.11 666.83,-1484.11 663,-1480.28 663,-1476.44 663,-1476.44 663,-1468.78 663,-1468.78 663,-1464.94 666.83,-1461.11 670.67,-1461.11 670.67,-1461.11 896.33,-1461.11 896.33,-1461.11 900.17,-1461.11 904,-1464.94 904,-1468.78 904,-1468.78 904,-1476.44 904,-1476.44 904,-1480.28 900.17,-1484.11 896.33,-1484.11"/>
<text text-anchor="middle" x="783.5" y="-1468.91" font-family="Arial" font-size="14.00" fill="#c6c5fe">components/FieldWorkerLogistics.tsx</text>
</g>
<!-- pages/IndexPage.tsx&#45;&gt;components/FieldWorkerLogistics.tsx -->
<g id="edge76" class="edge">
<title>pages/IndexPage.tsx&#45;&gt;components/FieldWorkerLogistics.tsx</title>
<path fill="none" stroke="#757575" d="M476.57,-1259.37C498.83,-1295.24 571.46,-1403.78 663,-1452.61 666.3,-1454.37 669.72,-1455.99 673.23,-1457.46"/>
<polygon fill="#757575" stroke="#757575" points="672.1,-1460.78 682.69,-1461.06 674.59,-1454.24 672.1,-1460.78"/>
</g>
<!-- components/HealthCertificate.tsx -->
<g id="node18" class="node">
<title>components/HealthCertificate.tsx</title>
<path fill="none" stroke="#c6c5fe" d="M883.33,-1443.11C883.33,-1443.11 683.67,-1443.11 683.67,-1443.11 679.83,-1443.11 676,-1439.28 676,-1435.44 676,-1435.44 676,-1427.78 676,-1427.78 676,-1423.94 679.83,-1420.11 683.67,-1420.11 683.67,-1420.11 883.33,-1420.11 883.33,-1420.11 887.17,-1420.11 891,-1423.94 891,-1427.78 891,-1427.78 891,-1435.44 891,-1435.44 891,-1439.28 887.17,-1443.11 883.33,-1443.11"/>
<text text-anchor="middle" x="783.5" y="-1427.91" font-family="Arial" font-size="14.00" fill="#c6c5fe">components/HealthCertificate.tsx</text>
</g>
<!-- pages/IndexPage.tsx&#45;&gt;components/HealthCertificate.tsx -->
<g id="edge77" class="edge">
<title>pages/IndexPage.tsx&#45;&gt;components/HealthCertificate.tsx</title>
<path fill="none" stroke="#757575" d="M478.97,-1259.12C504.83,-1289.7 580.31,-1373.24 663,-1411.61 667.14,-1413.53 671.43,-1415.27 675.82,-1416.84"/>
<polygon fill="#757575" stroke="#757575" points="674.99,-1420.25 685.58,-1420.03 677.16,-1413.6 674.99,-1420.25"/>
</g>
<!-- components/HealthStatusBadge.tsx -->
<g id="node19" class="node">
<title>components/HealthStatusBadge.tsx</title>
<path fill="none" stroke="#c6c5fe" d="M891.83,-1402.11C891.83,-1402.11 675.17,-1402.11 675.17,-1402.11 671.33,-1402.11 667.5,-1398.28 667.5,-1394.44 667.5,-1394.44 667.5,-1386.78 667.5,-1386.78 667.5,-1382.94 671.33,-1379.11 675.17,-1379.11 675.17,-1379.11 891.83,-1379.11 891.83,-1379.11 895.67,-1379.11 899.5,-1382.94 899.5,-1386.78 899.5,-1386.78 899.5,-1394.44 899.5,-1394.44 899.5,-1398.28 895.67,-1402.11 891.83,-1402.11"/>
<text text-anchor="middle" x="783.5" y="-1386.91" font-family="Arial" font-size="14.00" fill="#c6c5fe">components/HealthStatusBadge.tsx</text>
</g>
<!-- pages/IndexPage.tsx&#45;&gt;components/HealthStatusBadge.tsx -->
<g id="edge78" class="edge">
<title>pages/IndexPage.tsx&#45;&gt;components/HealthStatusBadge.tsx</title>
<path fill="none" stroke="#757575" d="M483.46,-1259.35C513.9,-1284.25 589.4,-1342.4 663,-1370.61 668.6,-1372.76 674.43,-1374.67 680.38,-1376.38"/>
<polygon fill="#757575" stroke="#757575" points="679.91,-1379.88 690.47,-1379.07 681.71,-1373.12 679.91,-1379.88"/>
</g>
<!-- components/HeroSection.tsx -->
<g id="node22" class="node">
<title>components/HeroSection.tsx</title>
<path fill="none" stroke="#c6c5fe" d="M870.83,-516.11C870.83,-516.11 696.17,-516.11 696.17,-516.11 692.33,-516.11 688.5,-512.28 688.5,-508.44 688.5,-508.44 688.5,-500.78 688.5,-500.78 688.5,-496.94 692.33,-493.11 696.17,-493.11 696.17,-493.11 870.83,-493.11 870.83,-493.11 874.67,-493.11 878.5,-496.94 878.5,-500.78 878.5,-500.78 878.5,-508.44 878.5,-508.44 878.5,-512.28 874.67,-516.11 870.83,-516.11"/>
<text text-anchor="middle" x="783.5" y="-500.91" font-family="Arial" font-size="14.00" fill="#c6c5fe">components/HeroSection.tsx</text>
</g>
<!-- pages/IndexPage.tsx&#45;&gt;components/HeroSection.tsx -->
<g id="edge79" class="edge">
<title>pages/IndexPage.tsx&#45;&gt;components/HeroSection.tsx</title>
<path fill="none" stroke="#757575" d="M478.39,-1235.94C506.27,-1198.63 592.17,-1077.88 627,-962.61 655.25,-869.12 596.9,-596.5 663,-524.61 667.74,-519.46 673.26,-515.31 679.28,-511.99"/>
<polygon fill="#757575" stroke="#757575" points="680.87,-515.11 688.43,-507.69 677.89,-508.77 680.87,-515.11"/>
</g>
<!-- components/Navbar.tsx -->
<g id="node25" class="node">
<title>components/Navbar.tsx</title>
<path fill="none" stroke="#c6c5fe" d="M854.83,-1361.11C854.83,-1361.11 712.17,-1361.11 712.17,-1361.11 708.33,-1361.11 704.5,-1357.28 704.5,-1353.44 704.5,-1353.44 704.5,-1345.78 704.5,-1345.78 704.5,-1341.94 708.33,-1338.11 712.17,-1338.11 712.17,-1338.11 854.83,-1338.11 854.83,-1338.11 858.67,-1338.11 862.5,-1341.94 862.5,-1345.78 862.5,-1345.78 862.5,-1353.44 862.5,-1353.44 862.5,-1357.28 858.67,-1361.11 854.83,-1361.11"/>
<text text-anchor="middle" x="783.5" y="-1345.91" font-family="Arial" font-size="14.00" fill="#c6c5fe">components/Navbar.tsx</text>
</g>
<!-- pages/IndexPage.tsx&#45;&gt;components/Navbar.tsx -->
<g id="edge80" class="edge">
<title>pages/IndexPage.tsx&#45;&gt;components/Navbar.tsx</title>
<path fill="none" stroke="#757575" d="M491.8,-1259.11C527.17,-1276.88 598.72,-1310.89 663,-1329.61 673.13,-1332.56 683.87,-1335.12 694.61,-1337.33"/>
<polygon fill="#757575" stroke="#757575" points="693.95,-1340.77 704.44,-1339.27 695.31,-1333.9 693.95,-1340.77"/>
</g>
<!-- components/ProximityStats.tsx -->
<g id="node26" class="node">
<title>components/ProximityStats.tsx</title>
<path fill="none" stroke="#c6c5fe" d="M877.33,-434.11C877.33,-434.11 689.67,-434.11 689.67,-434.11 685.83,-434.11 682,-430.28 682,-426.44 682,-426.44 682,-418.78 682,-418.78 682,-414.94 685.83,-411.11 689.67,-411.11 689.67,-411.11 877.33,-411.11 877.33,-411.11 881.17,-411.11 885,-414.94 885,-418.78 885,-418.78 885,-426.44 885,-426.44 885,-430.28 881.17,-434.11 877.33,-434.11"/>
<text text-anchor="middle" x="783.5" y="-418.91" font-family="Arial" font-size="14.00" fill="#c6c5fe">components/ProximityStats.tsx</text>
</g>
<!-- pages/IndexPage.tsx&#45;&gt;components/ProximityStats.tsx -->
<g id="edge81" class="edge">
<title>pages/IndexPage.tsx&#45;&gt;components/ProximityStats.tsx</title>
<path fill="none" stroke="#757575" d="M478.45,-1235.96C506.52,-1198.71 592.91,-1078.1 627,-962.61 643.39,-907.06 624.07,-485.49 663,-442.61 666.02,-439.28 669.37,-436.37 672.98,-433.83"/>
<polygon fill="#757575" stroke="#757575" points="675.02,-436.68 681.8,-428.54 671.43,-430.67 675.02,-436.68"/>
</g>
<!-- components/RegionFilter.tsx -->
<g id="node27" class="node">
<title>components/RegionFilter.tsx</title>
<path fill="none" stroke="#c6c5fe" d="M869.83,-1805.11C869.83,-1805.11 697.17,-1805.11 697.17,-1805.11 693.33,-1805.11 689.5,-1801.28 689.5,-1797.44 689.5,-1797.44 689.5,-1789.78 689.5,-1789.78 689.5,-1785.94 693.33,-1782.11 697.17,-1782.11 697.17,-1782.11 869.83,-1782.11 869.83,-1782.11 873.67,-1782.11 877.5,-1785.94 877.5,-1789.78 877.5,-1789.78 877.5,-1797.44 877.5,-1797.44 877.5,-1801.28 873.67,-1805.11 869.83,-1805.11"/>
<text text-anchor="middle" x="783.5" y="-1789.91" font-family="Arial" font-size="14.00" fill="#c6c5fe">components/RegionFilter.tsx</text>
</g>
<!-- pages/IndexPage.tsx&#45;&gt;components/RegionFilter.tsx -->
<g id="edge82" class="edge">
<title>pages/IndexPage.tsx&#45;&gt;components/RegionFilter.tsx</title>
<path fill="none" stroke="#757575" d="M472.34,-1259.43C485.89,-1313.92 547.99,-1544.67 663,-1696.61 688.5,-1730.3 728.09,-1759.38 754.64,-1776.69"/>
<polygon fill="#757575" stroke="#757575" points="752.79,-1779.66 763.1,-1782.1 756.56,-1773.76 752.79,-1779.66"/>
</g>
<!-- components/RiskAnalysisPanel.tsx -->
<g id="node28" class="node">
<title>components/RiskAnalysisPanel.tsx</title>
<path fill="none" stroke="#c6c5fe" d="M889.33,-1320.11C889.33,-1320.11 677.67,-1320.11 677.67,-1320.11 673.83,-1320.11 670,-1316.28 670,-1312.44 670,-1312.44 670,-1304.78 670,-1304.78 670,-1300.94 673.83,-1297.11 677.67,-1297.11 677.67,-1297.11 889.33,-1297.11 889.33,-1297.11 893.17,-1297.11 897,-1300.94 897,-1304.78 897,-1304.78 897,-1312.44 897,-1312.44 897,-1316.28 893.17,-1320.11 889.33,-1320.11"/>
<text text-anchor="middle" x="783.5" y="-1304.91" font-family="Arial" font-size="14.00" fill="#c6c5fe">components/RiskAnalysisPanel.tsx</text>
</g>
<!-- pages/IndexPage.tsx&#45;&gt;components/RiskAnalysisPanel.tsx -->
<g id="edge83" class="edge">
<title>pages/IndexPage.tsx&#45;&gt;components/RiskAnalysisPanel.tsx</title>
<path fill="none" stroke="#757575" d="M521.12,-1259.18C560.03,-1267.74 614.75,-1279.47 663,-1288.61 675.15,-1290.91 688.02,-1293.21 700.64,-1295.39"/>
<polygon fill="#757575" stroke="#757575" points="700.24,-1298.87 710.69,-1297.11 701.42,-1291.97 700.24,-1298.87"/>
</g>
<!-- components/RiskHeatmap.tsx -->
<g id="node29" class="node">
<title>components/RiskHeatmap.tsx</title>
<path fill="none" stroke="#c6c5fe" d="M874.33,-354.11C874.33,-354.11 692.67,-354.11 692.67,-354.11 688.83,-354.11 685,-350.28 685,-346.44 685,-346.44 685,-338.78 685,-338.78 685,-334.94 688.83,-331.11 692.67,-331.11 692.67,-331.11 874.33,-331.11 874.33,-331.11 878.17,-331.11 882,-334.94 882,-338.78 882,-338.78 882,-346.44 882,-346.44 882,-350.28 878.17,-354.11 874.33,-354.11"/>
<text text-anchor="middle" x="783.5" y="-338.91" font-family="Arial" font-size="14.00" fill="#c6c5fe">components/RiskHeatmap.tsx</text>
</g>
<!-- pages/IndexPage.tsx&#45;&gt;components/RiskHeatmap.tsx -->
<g id="edge84" class="edge">
<title>pages/IndexPage.tsx&#45;&gt;components/RiskHeatmap.tsx</title>
<path fill="none" stroke="#757575" d="M478.48,-1235.97C506.61,-1198.73 593.21,-1078.18 627,-962.61 662.06,-842.71 593.69,-505.54 663,-401.61 677.1,-380.47 701.09,-366.61 723.89,-357.68"/>
<polygon fill="#757575" stroke="#757575" points="725.37,-360.86 733.56,-354.14 722.97,-354.29 725.37,-360.86"/>
</g>
<!-- components/SelfAssessment.tsx -->
<g id="node30" class="node">
<title>components/SelfAssessment.tsx</title>
<path fill="none" stroke="#c6c5fe" d="M882.33,-1279.11C882.33,-1279.11 684.67,-1279.11 684.67,-1279.11 680.83,-1279.11 677,-1275.28 677,-1271.44 677,-1271.44 677,-1263.78 677,-1263.78 677,-1259.94 680.83,-1256.11 684.67,-1256.11 684.67,-1256.11 882.33,-1256.11 882.33,-1256.11 886.17,-1256.11 890,-1259.94 890,-1263.78 890,-1263.78 890,-1271.44 890,-1271.44 890,-1275.28 886.17,-1279.11 882.33,-1279.11"/>
<text text-anchor="middle" x="783.5" y="-1263.91" font-family="Arial" font-size="14.00" fill="#c6c5fe">components/SelfAssessment.tsx</text>
</g>
<!-- pages/IndexPage.tsx&#45;&gt;components/SelfAssessment.tsx -->
<g id="edge85" class="edge">
<title>pages/IndexPage.tsx&#45;&gt;components/SelfAssessment.tsx</title>
<path fill="none" stroke="#757575" d="M540.13,-1252.12C577.44,-1254.51 624.18,-1257.49 666.63,-1260.21"/>
<polygon fill="#757575" stroke="#757575" points="666.55,-1263.71 676.75,-1260.85 666.99,-1256.72 666.55,-1263.71"/>
</g>
<!-- components/Sidebar.tsx -->
<g id="node31" class="node">
<title>components/Sidebar.tsx</title>
<path fill="none" stroke="#c6c5fe" d="M856.33,-1238.11C856.33,-1238.11 710.67,-1238.11 710.67,-1238.11 706.83,-1238.11 703,-1234.28 703,-1230.44 703,-1230.44 703,-1222.78 703,-1222.78 703,-1218.94 706.83,-1215.11 710.67,-1215.11 710.67,-1215.11 856.33,-1215.11 856.33,-1215.11 860.17,-1215.11 864,-1218.94 864,-1222.78 864,-1222.78 864,-1230.44 864,-1230.44 864,-1234.28 860.17,-1238.11 856.33,-1238.11"/>
<text text-anchor="middle" x="783.5" y="-1222.91" font-family="Arial" font-size="14.00" fill="#c6c5fe">components/Sidebar.tsx</text>
</g>
<!-- pages/IndexPage.tsx&#45;&gt;components/Sidebar.tsx -->
<g id="edge86" class="edge">
<title>pages/IndexPage.tsx&#45;&gt;components/Sidebar.tsx</title>
<path fill="none" stroke="#757575" d="M540.13,-1242.87C585.25,-1239.84 644.15,-1235.89 692.59,-1232.64"/>
<polygon fill="#757575" stroke="#757575" points="693.01,-1236.12 702.75,-1231.96 692.54,-1229.14 693.01,-1236.12"/>
</g>
<!-- components/TestingLabs.tsx -->
<g id="node32" class="node">
<title>components/TestingLabs.tsx</title>
<path fill="none" stroke="#c6c5fe" d="M869.83,-1197.11C869.83,-1197.11 697.17,-1197.11 697.17,-1197.11 693.33,-1197.11 689.5,-1193.28 689.5,-1189.44 689.5,-1189.44 689.5,-1181.78 689.5,-1181.78 689.5,-1177.94 693.33,-1174.11 697.17,-1174.11 697.17,-1174.11 869.83,-1174.11 869.83,-1174.11 873.67,-1174.11 877.5,-1177.94 877.5,-1181.78 877.5,-1181.78 877.5,-1189.44 877.5,-1189.44 877.5,-1193.28 873.67,-1197.11 869.83,-1197.11"/>
<text text-anchor="middle" x="783.5" y="-1181.91" font-family="Arial" font-size="14.00" fill="#c6c5fe">components/TestingLabs.tsx</text>
</g>
<!-- pages/IndexPage.tsx&#45;&gt;components/TestingLabs.tsx -->
<g id="edge87" class="edge">
<title>pages/IndexPage.tsx&#45;&gt;components/TestingLabs.tsx</title>
<path fill="none" stroke="#757575" d="M521.55,-1236.07C560.45,-1227.57 614.96,-1215.92 663,-1206.61 676.4,-1204.01 690.66,-1201.39 704.5,-1198.91"/>
<polygon fill="#757575" stroke="#757575" points="705.26,-1202.33 714.49,-1197.14 704.03,-1195.44 705.26,-1202.33"/>
</g>
<!-- components/TrendChart.tsx -->
<g id="node33" class="node">
<title>components/TrendChart.tsx</title>
<path fill="none" stroke="#c6c5fe" d="M867.83,-1646.11C867.83,-1646.11 699.17,-1646.11 699.17,-1646.11 695.33,-1646.11 691.5,-1642.28 691.5,-1638.44 691.5,-1638.44 691.5,-1630.78 691.5,-1630.78 691.5,-1626.94 695.33,-1623.11 699.17,-1623.11 699.17,-1623.11 867.83,-1623.11 867.83,-1623.11 871.67,-1623.11 875.5,-1626.94 875.5,-1630.78 875.5,-1630.78 875.5,-1638.44 875.5,-1638.44 875.5,-1642.28 871.67,-1646.11 867.83,-1646.11"/>
<text text-anchor="middle" x="783.5" y="-1630.91" font-family="Arial" font-size="14.00" fill="#c6c5fe">components/TrendChart.tsx</text>
</g>
<!-- pages/IndexPage.tsx&#45;&gt;components/TrendChart.tsx -->
<g id="edge88" class="edge">
<title>pages/IndexPage.tsx&#45;&gt;components/TrendChart.tsx</title>
<path fill="none" stroke="#757575" d="M472.01,-1259.3C483.54,-1310.05 536.43,-1513.09 663,-1608.61 668.83,-1613.01 675.24,-1616.69 681.98,-1619.78"/>
<polygon fill="#757575" stroke="#757575" points="680.78,-1623.06 691.36,-1623.62 683.43,-1616.59 680.78,-1623.06"/>
</g>
<!-- lib/utils.ts -->
<g id="node44" class="node">
<title>lib/utils.ts</title>
<path fill="none" stroke="#cfffac" d="M811.83,-1115.11C811.83,-1115.11 755.17,-1115.11 755.17,-1115.11 751.33,-1115.11 747.5,-1111.28 747.5,-1107.44 747.5,-1107.44 747.5,-1099.78 747.5,-1099.78 747.5,-1095.94 751.33,-1092.11 755.17,-1092.11 755.17,-1092.11 811.83,-1092.11 811.83,-1092.11 815.67,-1092.11 819.5,-1095.94 819.5,-1099.78 819.5,-1099.78 819.5,-1107.44 819.5,-1107.44 819.5,-1111.28 815.67,-1115.11 811.83,-1115.11"/>
<text text-anchor="middle" x="783.5" y="-1099.91" font-family="Arial" font-size="14.00" fill="#cfffac">lib/utils.ts</text>
</g>
<!-- pages/IndexPage.tsx&#45;&gt;lib/utils.ts -->
<g id="edge91" class="edge">
<title>pages/IndexPage.tsx&#45;&gt;lib/utils.ts</title>
<path fill="none" stroke="#757575" d="M483.48,-1235.92C513.95,-1211.11 589.52,-1153.12 663,-1124.61 686.59,-1115.46 714.34,-1110.27 737.17,-1107.34"/>
<polygon fill="#757575" stroke="#757575" points="737.75,-1110.8 747.28,-1106.15 736.93,-1103.85 737.75,-1110.8"/>
</g>
<!-- pages/CommunityReport.tsx -->
<g id="node45" class="node">
<title>pages/CommunityReport.tsx</title>
<path fill="none" stroke="#c6c5fe" d="M869.83,-1156.11C869.83,-1156.11 697.17,-1156.11 697.17,-1156.11 693.33,-1156.11 689.5,-1152.28 689.5,-1148.44 689.5,-1148.44 689.5,-1140.78 689.5,-1140.78 689.5,-1136.94 693.33,-1133.11 697.17,-1133.11 697.17,-1133.11 869.83,-1133.11 869.83,-1133.11 873.67,-1133.11 877.5,-1136.94 877.5,-1140.78 877.5,-1140.78 877.5,-1148.44 877.5,-1148.44 877.5,-1152.28 873.67,-1156.11 869.83,-1156.11"/>
<text text-anchor="middle" x="783.5" y="-1140.91" font-family="Arial" font-size="14.00" fill="#c6c5fe">pages/CommunityReport.tsx</text>
</g>
<!-- pages/IndexPage.tsx&#45;&gt;pages/CommunityReport.tsx -->
<g id="edge92" class="edge">
<title>pages/IndexPage.tsx&#45;&gt;pages/CommunityReport.tsx</title>
<path fill="none" stroke="#757575" d="M492.11,-1236.03C527.6,-1218.31 598.97,-1184.54 663,-1165.61 672.39,-1162.83 682.32,-1160.37 692.27,-1158.2"/>
<polygon fill="#757575" stroke="#757575" points="693.13,-1161.6 702.21,-1156.13 691.71,-1154.75 693.13,-1161.6"/>
</g>
<!-- pages/HygieneEducation.tsx -->
<g id="node46" class="node">
<title>pages/HygieneEducation.tsx</title>
<path fill="none" stroke="#c6c5fe" d="M869.83,-1928.11C869.83,-1928.11 697.17,-1928.11 697.17,-1928.11 693.33,-1928.11 689.5,-1924.28 689.5,-1920.44 689.5,-1920.44 689.5,-1912.78 689.5,-1912.78 689.5,-1908.94 693.33,-1905.11 697.17,-1905.11 697.17,-1905.11 869.83,-1905.11 869.83,-1905.11 873.67,-1905.11 877.5,-1908.94 877.5,-1912.78 877.5,-1912.78 877.5,-1920.44 877.5,-1920.44 877.5,-1924.28 873.67,-1928.11 869.83,-1928.11"/>
<text text-anchor="middle" x="783.5" y="-1912.91" font-family="Arial" font-size="14.00" fill="#c6c5fe">pages/HygieneEducation.tsx</text>
</g>
<!-- pages/IndexPage.tsx&#45;&gt;pages/HygieneEducation.tsx -->
<g id="edge93" class="edge">
<title>pages/IndexPage.tsx&#45;&gt;pages/HygieneEducation.tsx</title>
<path fill="none" stroke="#757575" d="M474.74,-1259.23C496.71,-1308.44 582.4,-1504.96 627,-1674.61 652.41,-1771.28 592.5,-1825.75 663,-1896.61 667.98,-1901.62 673.72,-1905.66 679.92,-1908.9"/>
<polygon fill="#757575" stroke="#757575" points="678.75,-1912.21 689.31,-1913.08 681.6,-1905.81 678.75,-1912.21"/>
</g>
<!-- pages/NationalStats.tsx -->
<g id="node47" class="node">
<title>pages/NationalStats.tsx</title>
<path fill="none" stroke="#c6c5fe" d="M854.83,-1887.11C854.83,-1887.11 712.17,-1887.11 712.17,-1887.11 708.33,-1887.11 704.5,-1883.28 704.5,-1879.44 704.5,-1879.44 704.5,-1871.78 704.5,-1871.78 704.5,-1867.94 708.33,-1864.11 712.17,-1864.11 712.17,-1864.11 854.83,-1864.11 854.83,-1864.11 858.67,-1864.11 862.5,-1867.94 862.5,-1871.78 862.5,-1871.78 862.5,-1879.44 862.5,-1879.44 862.5,-1883.28 858.67,-1887.11 854.83,-1887.11"/>
<text text-anchor="middle" x="783.5" y="-1871.91" font-family="Arial" font-size="14.00" fill="#c6c5fe">pages/NationalStats.tsx</text>
</g>
<!-- pages/IndexPage.tsx&#45;&gt;pages/NationalStats.tsx -->
<g id="edge94" class="edge">
<title>pages/IndexPage.tsx&#45;&gt;pages/NationalStats.tsx</title>
<path fill="none" stroke="#757575" d="M474.58,-1259.27C495.91,-1308.66 579.39,-1505.78 627,-1674.61 649.26,-1753.55 604.13,-1798.5 663,-1855.61 671.79,-1864.13 682.76,-1869.82 694.46,-1873.51"/>
<polygon fill="#757575" stroke="#757575" points="693.87,-1876.97 704.43,-1876.16 695.67,-1870.21 693.87,-1876.97"/>
</g>
<!-- pages/ProfilePage.tsx -->
<g id="node48" class="node">
<title>pages/ProfilePage.tsx</title>
<path fill="none" stroke="#c6c5fe" d="M849.83,-1074.11C849.83,-1074.11 717.17,-1074.11 717.17,-1074.11 713.33,-1074.11 709.5,-1070.28 709.5,-1066.44 709.5,-1066.44 709.5,-1058.78 709.5,-1058.78 709.5,-1054.94 713.33,-1051.11 717.17,-1051.11 717.17,-1051.11 849.83,-1051.11 849.83,-1051.11 853.67,-1051.11 857.5,-1054.94 857.5,-1058.78 857.5,-1058.78 857.5,-1066.44 857.5,-1066.44 857.5,-1070.28 853.67,-1074.11 849.83,-1074.11"/>
<text text-anchor="middle" x="783.5" y="-1058.91" font-family="Arial" font-size="14.00" fill="#c6c5fe">pages/ProfilePage.tsx</text>
</g>
<!-- pages/IndexPage.tsx&#45;&gt;pages/ProfilePage.tsx -->
<g id="edge95" class="edge">
<title>pages/IndexPage.tsx&#45;&gt;pages/ProfilePage.tsx</title>
<path fill="none" stroke="#757575" d="M479.36,-1235.69C505.62,-1204.85 580.87,-1122.13 663,-1083.61 674.29,-1078.32 686.74,-1074.35 699.22,-1071.38"/>
<polygon fill="#757575" stroke="#757575" points="700.19,-1074.75 709.21,-1069.2 698.7,-1067.91 700.19,-1074.75"/>
</g>
<!-- pages/SettingsPage.tsx -->
<g id="node49" class="node">
<title>pages/SettingsPage.tsx</title>
<path fill="none" stroke="#c6c5fe" d="M854.83,-992.11C854.83,-992.11 712.17,-992.11 712.17,-992.11 708.33,-992.11 704.5,-988.28 704.5,-984.44 704.5,-984.44 704.5,-976.78 704.5,-976.78 704.5,-972.94 708.33,-969.11 712.17,-969.11 712.17,-969.11 854.83,-969.11 854.83,-969.11 858.67,-969.11 862.5,-972.94 862.5,-976.78 862.5,-976.78 862.5,-984.44 862.5,-984.44 862.5,-988.28 858.67,-992.11 854.83,-992.11"/>
<text text-anchor="middle" x="783.5" y="-976.91" font-family="Arial" font-size="14.00" fill="#c6c5fe">pages/SettingsPage.tsx</text>
</g>
<!-- pages/IndexPage.tsx&#45;&gt;pages/SettingsPage.tsx -->
<g id="edge96" class="edge">
<title>pages/IndexPage.tsx&#45;&gt;pages/SettingsPage.tsx</title>
<path fill="none" stroke="#757575" d="M474.82,-1235.88C493.77,-1195.57 562.28,-1061.87 663,-1001.61 672.65,-995.84 683.47,-991.56 694.55,-988.41"/>
<polygon fill="#757575" stroke="#757575" points="695.5,-991.77 704.33,-985.91 693.78,-984.99 695.5,-991.77"/>
</g>
<!-- pages/Telemedicine.tsx -->
<g id="node50" class="node">
<title>pages/Telemedicine.tsx</title>
<path fill="none" stroke="#c6c5fe" d="M854.83,-1033.11C854.83,-1033.11 712.17,-1033.11 712.17,-1033.11 708.33,-1033.11 704.5,-1029.28 704.5,-1025.44 704.5,-1025.44 704.5,-1017.78 704.5,-1017.78 704.5,-1013.94 708.33,-1010.11 712.17,-1010.11 712.17,-1010.11 854.83,-1010.11 854.83,-1010.11 858.67,-1010.11 862.5,-1013.94 862.5,-1017.78 862.5,-1017.78 862.5,-1025.44 862.5,-1025.44 862.5,-1029.28 858.67,-1033.11 854.83,-1033.11"/>
<text text-anchor="middle" x="783.5" y="-1017.91" font-family="Arial" font-size="14.00" fill="#c6c5fe">pages/Telemedicine.tsx</text>
</g>
<!-- pages/IndexPage.tsx&#45;&gt;pages/Telemedicine.tsx -->
<g id="edge97" class="edge">
<title>pages/IndexPage.tsx&#45;&gt;pages/Telemedicine.tsx</title>
<path fill="none" stroke="#757575" d="M476.59,-1235.88C498.9,-1200.11 571.65,-1091.81 663,-1042.61 672.66,-1037.41 683.33,-1033.46 694.2,-1030.46"/>
<polygon fill="#757575" stroke="#757575" points="695.36,-1033.77 704.22,-1027.96 693.67,-1026.98 695.36,-1033.77"/>
</g>
<!-- components/AdvisoriesPanel.tsx&#45;&gt;lib/ThemeContext.tsx -->
<g id="edge7" class="edge">
<title>components/AdvisoriesPanel.tsx&#45;&gt;lib/ThemeContext.tsx</title>
<path fill="none" stroke="#757575" d="M889.68,-1544.27C894.79,-1541.58 899.62,-1538.38 904,-1534.61 910.11,-1529.35 981.72,-1300.64 1004.25,-1228.31"/>
<polygon fill="#757575" stroke="#757575" points="1007.69,-1229.04 1007.32,-1218.45 1001.01,-1226.96 1007.69,-1229.04"/>
</g>
<!-- components/AlertBanner.tsx&#45;&gt;lib/ThemeContext.tsx -->
<g id="edge8" class="edge">
<title>components/AlertBanner.tsx&#45;&gt;lib/ThemeContext.tsx</title>
<path fill="none" stroke="#757575" d="M876.61,-594.69C886.85,-598.87 896.33,-604.66 904,-612.61 985.35,-696.94 1006.23,-1087.27 1010.2,-1184.58"/>
<polygon fill="#757575" stroke="#757575" points="1006.71,-1184.87 1010.6,-1194.73 1013.71,-1184.6 1006.71,-1184.87"/>
</g>
<!-- types/models.ts -->
<g id="node10" class="node">
<title>types/models.ts</title>
<path fill="none" stroke="#cfffac" d="M1369.33,-836.11C1369.33,-836.11 1273.67,-836.11 1273.67,-836.11 1269.83,-836.11 1266,-832.28 1266,-828.44 1266,-828.44 1266,-820.78 1266,-820.78 1266,-816.94 1269.83,-813.11 1273.67,-813.11 1273.67,-813.11 1369.33,-813.11 1369.33,-813.11 1373.17,-813.11 1377,-816.94 1377,-820.78 1377,-820.78 1377,-828.44 1377,-828.44 1377,-832.28 1373.17,-836.11 1369.33,-836.11"/>
<text text-anchor="middle" x="1321.5" y="-820.91" font-family="Arial" font-size="14.00" fill="#cfffac">types/models.ts</text>
</g>
<!-- components/AlertBanner.tsx&#45;&gt;types/models.ts -->
<g id="edge9" class="edge">
<title>components/AlertBanner.tsx&#45;&gt;types/models.ts</title>
<path fill="none" stroke="#757575" d="M876.59,-595.55C885.95,-597.46 895.23,-599.79 904,-602.61 1063.09,-653.82 1233.07,-764.35 1295.59,-807.17"/>
<polygon fill="#757575" stroke="#757575" points="1293.8,-810.19 1304.02,-812.98 1297.78,-804.43 1293.8,-810.19"/>
</g>
<!-- components/AlertHistoryPanel.tsx&#45;&gt;lib/ThemeContext.tsx -->
<g id="edge10" class="edge">
<title>components/AlertHistoryPanel.tsx&#45;&gt;lib/ThemeContext.tsx</title>
<path fill="none" stroke="#757575" d="M893.53,-1823.03C897.27,-1820.59 900.79,-1817.79 904,-1814.61 946.91,-1772.06 997.27,-1332.54 1008.64,-1228.57"/>
<polygon fill="#757575" stroke="#757575" points="1012.15,-1228.65 1009.75,-1218.33 1005.19,-1227.89 1012.15,-1228.65"/>
</g>
<!-- components/AlertHistoryPanel.tsx&#45;&gt;types/models.ts -->
<g id="edge11" class="edge">
<title>components/AlertHistoryPanel.tsx&#45;&gt;types/models.ts</title>
<path fill="none" stroke="#757575" d="M881.43,-1823.04C889.23,-1820.72 896.85,-1817.94 904,-1814.61 999.21,-1770.35 1018.27,-1743.49 1084,-1661.61 1170.87,-1553.39 1185.92,-1517.19 1230,-1385.61 1297.66,-1183.63 1315.57,-923.29 1319.52,-846.71"/>
<polygon fill="#757575" stroke="#757575" points="1323.03,-846.56 1320.02,-836.4 1316.03,-846.22 1323.03,-846.56"/>
</g>
<!-- components/Card.tsx&#45;&gt;lib/ThemeContext.tsx -->
<g id="edge14" class="edge">
<title>components/Card.tsx&#45;&gt;lib/ThemeContext.tsx</title>
<path fill="none" stroke="#757575" d="M856.05,-1677.04C873.58,-1674.05 891.01,-1667.74 904,-1655.61 968.04,-1595.79 1000.76,-1310.46 1008.93,-1228.6"/>
<polygon fill="#757575" stroke="#757575" points="1012.43,-1228.74 1009.92,-1218.45 1005.46,-1228.06 1012.43,-1228.74"/>
</g>
<!-- components/CategorizedMap.tsx&#45;&gt;lib/ThemeContext.tsx -->
<g id="edge16" class="edge">
<title>components/CategorizedMap.tsx&#45;&gt;lib/ThemeContext.tsx</title>
<path fill="none" stroke="#757575" d="M891.03,-794.27C895.67,-796.91 900.03,-800 904,-803.61 961.91,-856.34 998.37,-1107.87 1008.27,-1184.44"/>
<polygon fill="#757575" stroke="#757575" points="1004.85,-1185.32 1009.58,-1194.8 1011.8,-1184.44 1004.85,-1185.32"/>
</g>
<!-- components/Map.tsx -->
<g id="node14" class="node">
<title>components/Map.tsx</title>
<path fill="none" stroke="#cfffac" d="M1075.83,-497.11C1075.83,-497.11 948.17,-497.11 948.17,-497.11 944.33,-497.11 940.5,-493.28 940.5,-489.44 940.5,-489.44 940.5,-481.78 940.5,-481.78 940.5,-477.94 944.33,-474.11 948.17,-474.11 948.17,-474.11 1075.83,-474.11 1075.83,-474.11 1079.67,-474.11 1083.5,-477.94 1083.5,-481.78 1083.5,-481.78 1083.5,-489.44 1083.5,-489.44 1083.5,-493.28 1079.67,-497.11 1075.83,-497.11"/>
<text text-anchor="middle" x="1012" y="-481.91" font-family="Arial" font-size="14.00" fill="#cfffac">components/Map.tsx</text>
</g>
<!-- components/CategorizedMap.tsx&#45;&gt;components/Map.tsx -->
<g id="edge15" class="edge">
<title>components/CategorizedMap.tsx&#45;&gt;components/Map.tsx</title>
<path fill="none" stroke="#757575" d="M891.07,-772.92C895.77,-770.03 900.12,-766.63 904,-762.61 984.13,-679.65 864.15,-592.5 940,-505.61 940.63,-504.89 941.28,-504.2 941.95,-503.53"/>
<polygon fill="#757575" stroke="#757575" points="944.22,-506.2 949.88,-497.25 939.87,-500.71 944.22,-506.2"/>
</g>
<!-- components/EmergencyHelpline.tsx&#45;&gt;lib/ThemeContext.tsx -->
<g id="edge17" class="edge">
<title>components/EmergencyHelpline.tsx&#45;&gt;lib/ThemeContext.tsx</title>
<path fill="none" stroke="#757575" d="M891.45,-1502.02C895.89,-1499.61 900.11,-1496.82 904,-1493.61 925.66,-1475.73 984.45,-1291.88 1004.33,-1228.19"/>
<polygon fill="#757575" stroke="#757575" points="1007.75,-1228.99 1007.37,-1218.4 1001.06,-1226.91 1007.75,-1228.99"/>
</g>
<!-- components/ExplainabilityPanel.tsx&#45;&gt;lib/ThemeContext.tsx -->
<g id="edge18" class="edge">
<title>components/ExplainabilityPanel.tsx&#45;&gt;lib/ThemeContext.tsx</title>
<path fill="none" stroke="#757575" d="M881.97,-836.18C890.02,-839.9 897.53,-844.63 904,-850.61 1003.23,-942.41 1011.71,-1122.32 1011.52,-1184.7"/>
<polygon fill="#757575" stroke="#757575" points="1008.01,-1184.89 1011.4,-1194.93 1015.01,-1184.97 1008.01,-1184.89"/>
</g>
<!-- components/ExplainabilityPanel.tsx&#45;&gt;types/models.ts -->
<g id="edge19" class="edge">
<title>components/ExplainabilityPanel.tsx&#45;&gt;types/models.ts</title>
<path fill="none" stroke="#757575" d="M898.17,-824.61C1006.95,-824.61 1167.19,-824.61 1255.73,-824.61"/>
<polygon fill="#757575" stroke="#757575" points="1255.91,-828.11 1265.91,-824.61 1255.91,-821.11 1255.91,-828.11"/>
</g>
<!-- components/FieldWorkerLogistics.tsx&#45;&gt;lib/ThemeContext.tsx -->
<g id="edge20" class="edge">
<title>components/FieldWorkerLogistics.tsx&#45;&gt;lib/ThemeContext.tsx</title>
<path fill="none" stroke="#757575" d="M890.68,-1461.05C895.38,-1458.64 899.86,-1455.85 904,-1452.61 977.55,-1395.15 1001.52,-1276.92 1008.46,-1228.26"/>
<polygon fill="#757575" stroke="#757575" points="1011.94,-1228.59 1009.79,-1218.21 1005.01,-1227.67 1011.94,-1228.59"/>
</g>
<!-- components/HealthCertificate.tsx&#45;&gt;lib/ThemeContext.tsx -->
<g id="edge21" class="edge">
<title>components/HealthCertificate.tsx&#45;&gt;lib/ThemeContext.tsx</title>
<path fill="none" stroke="#757575" d="M889.55,-1420.1C894.63,-1417.69 899.49,-1414.88 904,-1411.61 967.37,-1365.62 996.28,-1270.73 1006.47,-1228.13"/>
<polygon fill="#757575" stroke="#757575" points="1009.9,-1228.79 1008.71,-1218.27 1003.08,-1227.24 1009.9,-1228.79"/>
</g>
<!-- components/HealthStatusBadge.tsx&#45;&gt;lib/ThemeContext.tsx -->
<g id="edge22" class="edge">
<title>components/HealthStatusBadge.tsx&#45;&gt;lib/ThemeContext.tsx</title>
<path fill="none" stroke="#757575" d="M888,-1379.07C893.6,-1376.69 898.98,-1373.89 904,-1370.61 957.34,-1335.72 989.94,-1263.97 1003.57,-1228.06"/>
<polygon fill="#757575" stroke="#757575" points="1006.91,-1229.14 1007.06,-1218.55 1000.33,-1226.73 1006.91,-1229.14"/>
</g>
<!-- components/HelloWorld.tsx -->
<g id="node20" class="node">
<title>components/HelloWorld.tsx</title>
<path fill="none" stroke="#c6c5fe" d="M866.83,-475.11C866.83,-475.11 700.17,-475.11 700.17,-475.11 696.33,-475.11 692.5,-471.28 692.5,-467.44 692.5,-467.44 692.5,-459.78 692.5,-459.78 692.5,-455.94 696.33,-452.11 700.17,-452.11 700.17,-452.11 866.83,-452.11 866.83,-452.11 870.67,-452.11 874.5,-455.94 874.5,-459.78 874.5,-459.78 874.5,-467.44 874.5,-467.44 874.5,-471.28 870.67,-475.11 866.83,-475.11"/>
<text text-anchor="middle" x="783.5" y="-459.91" font-family="Arial" font-size="14.00" fill="#c6c5fe">components/HelloWorld.tsx</text>
</g>
<!-- components/HelloWorld.tsx&#45;&gt;lib/supabase.ts -->
<g id="edge23" class="edge">
<title>components/HelloWorld.tsx&#45;&gt;lib/supabase.ts</title>
<path fill="none" stroke="#757575" d="M874.56,-474.85C884.64,-477.23 894.64,-480.12 904,-483.61 921.57,-490.17 922.86,-498 940,-505.61 944.99,-507.83 950.28,-509.89 955.64,-511.78"/>
<polygon fill="#757575" stroke="#757575" points="954.7,-515.16 965.29,-515.01 956.92,-508.52 954.7,-515.16"/>
</g>
<!-- components/HeroSection.tsx&#45;&gt;lib/ThemeContext.tsx -->
<g id="edge24" class="edge">
<title>components/HeroSection.tsx&#45;&gt;lib/ThemeContext.tsx</title>
<path fill="none" stroke="#757575" d="M878.61,-508.44C888.08,-512.14 896.82,-517.36 904,-524.61 999.38,-620.97 1009.74,-1079.73 1010.87,-1185.03"/>
<polygon fill="#757575" stroke="#757575" points="1007.37,-1185.13 1010.95,-1195.1 1014.37,-1185.07 1007.37,-1185.13"/>
</g>
<!-- components/HeroSection.tsx&#45;&gt;lib/sync.ts -->
<g id="edge25" class="edge">
<title>components/HeroSection.tsx&#45;&gt;lib/sync.ts</title>
<path fill="none" stroke="#757575" d="M878.56,-497.65C887.75,-494.24 896.44,-489.68 904,-483.61 980.54,-422.16 1002.89,-296.72 1008.93,-246.3"/>
<polygon fill="#757575" stroke="#757575" points="1012.43,-246.53 1010.04,-236.21 1005.47,-245.77 1012.43,-246.53"/>
</g>
<!-- components/HotspotMap.tsx -->
<g id="node23" class="node">
<title>components/HotspotMap.tsx</title>
<path fill="none" stroke="#c6c5fe" d="M870.33,-557.11C870.33,-557.11 696.67,-557.11 696.67,-557.11 692.83,-557.11 689,-553.28 689,-549.44 689,-549.44 689,-541.78 689,-541.78 689,-537.94 692.83,-534.11 696.67,-534.11 696.67,-534.11 870.33,-534.11 870.33,-534.11 874.17,-534.11 878,-537.94 878,-541.78 878,-541.78 878,-549.44 878,-549.44 878,-553.28 874.17,-557.11 870.33,-557.11"/>
<text text-anchor="middle" x="783.5" y="-541.91" font-family="Arial" font-size="14.00" fill="#c6c5fe">components/HotspotMap.tsx</text>
</g>
<!-- components/HotspotMap.tsx&#45;&gt;lib/ThemeContext.tsx -->
<g id="edge27" class="edge">
<title>components/HotspotMap.tsx&#45;&gt;lib/ThemeContext.tsx</title>
<path fill="none" stroke="#757575" d="M878.25,-549.39C887.84,-553.09 896.71,-558.32 904,-565.61 993.76,-655.41 1008.4,-1082.8 1010.62,-1184.74"/>
<polygon fill="#757575" stroke="#757575" points="1007.13,-1185.11 1010.83,-1195.04 1014.13,-1184.97 1007.13,-1185.11"/>
</g>
<!-- components/HotspotMap.tsx&#45;&gt;components/Map.tsx -->
<g id="edge26" class="edge">
<title>components/HotspotMap.tsx&#45;&gt;components/Map.tsx</title>
<path fill="none" stroke="#757575" d="M869.55,-534.04C881.27,-531.47 893.04,-528.36 904,-524.61 921.12,-518.75 923.2,-512.32 940,-505.61 944.78,-503.7 949.82,-501.9 954.9,-500.21"/>
<polygon fill="#757575" stroke="#757575" points="956.21,-503.47 964.69,-497.13 954.1,-496.79 956.21,-503.47"/>
</g>
<!-- components/Map.web.tsx -->
<g id="node24" class="node">
<title>components/Map.web.tsx</title>
<path fill="none" stroke="#cfffac" d="M214.83,-1025.11C214.83,-1025.11 59.17,-1025.11 59.17,-1025.11 55.33,-1025.11 51.5,-1021.28 51.5,-1017.44 51.5,-1017.44 51.5,-1009.78 51.5,-1009.78 51.5,-1005.94 55.33,-1002.11 59.17,-1002.11 59.17,-1002.11 214.83,-1002.11 214.83,-1002.11 218.67,-1002.11 222.5,-1005.94 222.5,-1009.78 222.5,-1009.78 222.5,-1017.44 222.5,-1017.44 222.5,-1021.28 218.67,-1025.11 214.83,-1025.11"/>
<text text-anchor="middle" x="137" y="-1009.91" font-family="Arial" font-size="14.00" fill="#cfffac">components/Map.web.tsx</text>
</g>
<!-- components/Navbar.tsx&#45;&gt;lib/ThemeContext.tsx -->
<g id="edge28" class="edge">
<title>components/Navbar.tsx&#45;&gt;lib/ThemeContext.tsx</title>
<path fill="none" stroke="#757575" d="M862.68,-1344.47C877.03,-1341.35 891.43,-1336.65 904,-1329.61 947.93,-1305.02 982.48,-1255.21 999.47,-1227.11"/>
<polygon fill="#757575" stroke="#757575" points="1002.49,-1228.87 1004.54,-1218.47 996.45,-1225.32 1002.49,-1228.87"/>
</g>
<!-- components/ProximityStats.tsx&#45;&gt;lib/ThemeContext.tsx -->
<g id="edge31" class="edge">
<title>components/ProximityStats.tsx&#45;&gt;lib/ThemeContext.tsx</title>
<path fill="none" stroke="#757575" d="M885.03,-429.1C892.04,-432.53 898.5,-436.96 904,-442.61 957.52,-497.57 1000.94,-1066.08 1009.48,-1184.91"/>
<polygon fill="#757575" stroke="#757575" points="1005.99,-1185.25 1010.19,-1194.97 1012.98,-1184.75 1005.99,-1185.25"/>
</g>
<!-- components/ProximityStats.tsx&#45;&gt;lib/sync.ts -->
<g id="edge32" class="edge">
<title>components/ProximityStats.tsx&#45;&gt;lib/sync.ts</title>
<path fill="none" stroke="#757575" d="M816.71,-411.03C842.15,-400.85 877.64,-384.29 904,-362.61 945.86,-328.18 981.44,-274.53 999.1,-245.3"/>
<polygon fill="#757575" stroke="#757575" points="1002.29,-246.78 1004.38,-236.39 996.27,-243.21 1002.29,-246.78"/>
</g>
<!-- components/RegionFilter.tsx&#45;&gt;lib/ThemeContext.tsx -->
<g id="edge33" class="edge">
<title>components/RegionFilter.tsx&#45;&gt;lib/ThemeContext.tsx</title>
<path fill="none" stroke="#757575" d="M877.71,-1784.97C887.52,-1780.84 896.59,-1775.21 904,-1767.61 923.49,-1747.61 991.55,-1328.28 1007.59,-1228.01"/>
<polygon fill="#757575" stroke="#757575" points="1011.05,-1228.54 1009.17,-1218.12 1004.14,-1227.44 1011.05,-1228.54"/>
</g>
<!-- components/RegionFilter.tsx&#45;&gt;types/models.ts -->
<g id="edge34" class="edge">
<title>components/RegionFilter.tsx&#45;&gt;types/models.ts</title>
<path fill="none" stroke="#757575" d="M839.15,-1782.1C860.84,-1775.66 885.06,-1765.94 904,-1751.61 1119.98,-1588.11 1133.36,-1489.68 1230,-1236.61 1284.6,-1093.63 1310.37,-909.51 1317.99,-846.72"/>
<polygon fill="#757575" stroke="#757575" points="1321.51,-846.79 1319.2,-836.44 1314.55,-845.96 1321.51,-846.79"/>
</g>
<!-- components/RiskAnalysisPanel.tsx&#45;&gt;lib/ThemeContext.tsx -->
<g id="edge35" class="edge">
<title>components/RiskAnalysisPanel.tsx&#45;&gt;lib/ThemeContext.tsx</title>
<path fill="none" stroke="#757575" d="M879.68,-1297.08C888.06,-1294.76 896.28,-1291.96 904,-1288.61 938.87,-1273.46 972.57,-1244.52 992.54,-1225.39"/>
<polygon fill="#757575" stroke="#757575" points="995.04,-1227.84 999.74,-1218.35 990.15,-1222.84 995.04,-1227.84"/>
</g>
<!-- components/RiskHeatmap.tsx&#45;&gt;lib/ThemeContext.tsx -->
<g id="edge37" class="edge">
<title>components/RiskHeatmap.tsx&#45;&gt;lib/ThemeContext.tsx</title>
<path fill="none" stroke="#757575" d="M831.6,-354.16C857.1,-362.91 886.81,-377.64 904,-401.61 927.63,-434.56 995.21,-1058.46 1008.66,-1184.52"/>
<polygon fill="#757575" stroke="#757575" points="1005.22,-1185.26 1009.75,-1194.83 1012.18,-1184.52 1005.22,-1185.26"/>
</g>
<!-- components/RiskHeatmap.tsx&#45;&gt;lib/sync.ts -->
<g id="edge38" class="edge">
<title>components/RiskHeatmap.tsx&#45;&gt;lib/sync.ts</title>
<path fill="none" stroke="#757575" d="M864.17,-331.06C877.86,-327.47 891.65,-322.76 904,-316.61 940.56,-298.4 974.87,-264.89 994.37,-243.73"/>
<polygon fill="#757575" stroke="#757575" points="996.99,-246.06 1001.09,-236.29 991.79,-241.37 996.99,-246.06"/>
</g>
<!-- components/RiskHeatmap.tsx&#45;&gt;components/Map.tsx -->
<g id="edge36" class="edge">
<title>components/RiskHeatmap.tsx&#45;&gt;components/Map.tsx</title>
<path fill="none" stroke="#757575" d="M869.22,-354.19C881.36,-357.78 893.33,-362.47 904,-368.61 945.83,-392.68 980.55,-438.66 998.28,-465.25"/>
<polygon fill="#757575" stroke="#757575" points="995.44,-467.3 1003.83,-473.78 1001.31,-463.48 995.44,-467.3"/>
</g>
<!-- components/SelfAssessment.tsx&#45;&gt;lib/ThemeContext.tsx -->
<g id="edge39" class="edge">
<title>components/SelfAssessment.tsx&#45;&gt;lib/ThemeContext.tsx</title>
<path fill="none" stroke="#757575" d="M866.61,-1256.1C879.22,-1253.69 892.03,-1250.87 904,-1247.61 928.52,-1240.93 955.22,-1230.71 975.81,-1222.14"/>
<polygon fill="#757575" stroke="#757575" points="977.26,-1225.33 985.1,-1218.21 974.53,-1218.88 977.26,-1225.33"/>
</g>
<!-- components/Sidebar.tsx&#45;&gt;lib/ThemeContext.tsx -->
<g id="edge40" class="edge">
<title>components/Sidebar.tsx&#45;&gt;lib/ThemeContext.tsx</title>
<path fill="none" stroke="#757575" d="M864.04,-1219.59C885.38,-1217.7 908.49,-1215.66 929.92,-1213.77"/>
<polygon fill="#757575" stroke="#757575" points="930.31,-1217.25 939.96,-1212.88 929.69,-1210.28 930.31,-1217.25"/>
</g>
<!-- components/TestingLabs.tsx&#45;&gt;lib/ThemeContext.tsx -->
<g id="edge41" class="edge">
<title>components/TestingLabs.tsx&#45;&gt;lib/ThemeContext.tsx</title>
<path fill="none" stroke="#757575" d="M877.61,-1194.24C894.78,-1195.84 912.6,-1197.49 929.41,-1199.04"/>
<polygon fill="#757575" stroke="#757575" points="929.44,-1202.56 939.72,-1200 930.09,-1195.59 929.44,-1202.56"/>
</g>
<!-- components/TrendChart.tsx&#45;&gt;lib/ThemeContext.tsx -->
<g id="edge42" class="edge">
<title>components/TrendChart.tsx&#45;&gt;lib/ThemeContext.tsx</title>
<path fill="none" stroke="#757575" d="M875.51,-1626.68C886.12,-1622.5 896,-1616.67 904,-1608.61 959.01,-1553.17 920.46,-1512.23 940,-1436.61 960.06,-1358.98 989.93,-1268.53 1003.64,-1228.07"/>
<polygon fill="#757575" stroke="#757575" points="1007,-1229.06 1006.91,-1218.47 1000.37,-1226.81 1007,-1229.06"/>
</g>
<!-- components/TrendChart.tsx&#45;&gt;types/models.ts -->
<g id="edge43" class="edge">
<title>components/TrendChart.tsx&#45;&gt;types/models.ts</title>
<path fill="none" stroke="#757575" d="M859.72,-1623.07C875.51,-1618.06 891.23,-1610.89 904,-1600.61 1172.35,-1384.63 1290.95,-947.8 1315.54,-846.11"/>
<polygon fill="#757575" stroke="#757575" points="1318.95,-846.89 1317.86,-836.35 1312.14,-845.27 1318.95,-846.89"/>
</g>
<!-- components/__tests__/AlertBanner.test.tsx -->
<g id="node34" class="node">
<title>components/__tests__/AlertBanner.test.tsx</title>
<path fill="none" stroke="#c6c5fe" d="M597.83,-239.11C597.83,-239.11 339.17,-239.11 339.17,-239.11 335.33,-239.11 331.5,-235.28 331.5,-231.44 331.5,-231.44 331.5,-223.78 331.5,-223.78 331.5,-219.94 335.33,-216.11 339.17,-216.11 339.17,-216.11 597.83,-216.11 597.83,-216.11 601.67,-216.11 605.5,-219.94 605.5,-223.78 605.5,-223.78 605.5,-231.44 605.5,-231.44 605.5,-235.28 601.67,-239.11 597.83,-239.11"/>
<text text-anchor="middle" x="468.5" y="-223.91" font-family="Arial" font-size="14.00" fill="#c6c5fe">components/__tests__/AlertBanner.test.tsx</text>
</g>
<!-- components/__tests__/AlertBanner.test.tsx&#45;&gt;components/AlertBanner.tsx -->
<g id="edge44" class="edge">
<title>components/__tests__/AlertBanner.test.tsx&#45;&gt;components/AlertBanner.tsx</title>
<path fill="none" stroke="#757575" d="M506.69,-239.23C543.55,-252.8 598.49,-279 627,-321.61 687.95,-412.72 586.56,-487.04 663,-565.61 668.25,-571.01 674.37,-575.31 681,-578.71"/>
<polygon fill="#757575" stroke="#757575" points="679.78,-581.99 690.34,-582.81 682.59,-575.59 679.78,-581.99"/>
</g>
<!-- components/__tests__/AlertBanner.test.tsx&#45;&gt;types/models.ts -->
<g id="edge45" class="edge">
<title>components/__tests__/AlertBanner.test.tsx&#45;&gt;types/models.ts</title>
<path fill="none" stroke="#757575" d="M477.38,-215.94C500.83,-182.4 574.06,-86.01 663,-51.61 906.33,42.5 1089.36,16.13 1230,-203.61 1295.82,-306.45 1315.76,-705.21 1319.7,-802.91"/>
<polygon fill="#757575" stroke="#757575" points="1316.21,-803.21 1320.1,-813.06 1323.2,-802.93 1316.21,-803.21"/>
</g>
<!-- components/__tests__/AuthScreen.test.tsx -->
<g id="node35" class="node">
<title>components/__tests__/AuthScreen.test.tsx</title>
<path fill="none" stroke="#c6c5fe" d="M266.33,-984.11C266.33,-984.11 7.67,-984.11 7.67,-984.11 3.83,-984.11 0,-980.28 0,-976.44 0,-976.44 0,-968.78 0,-968.78 0,-964.94 3.83,-961.11 7.67,-961.11 7.67,-961.11 266.33,-961.11 266.33,-961.11 270.17,-961.11 274,-964.94 274,-968.78 274,-968.78 274,-976.44 274,-976.44 274,-980.28 270.17,-984.11 266.33,-984.11"/>
<text text-anchor="middle" x="137" y="-968.91" font-family="Arial" font-size="14.00" fill="#c6c5fe">components/__tests__/AuthScreen.test.tsx</text>
</g>
<!-- components/__tests__/AuthScreen.test.tsx&#45;&gt;components/AuthScreen.tsx -->
<g id="edge46" class="edge">
<title>components/__tests__/AuthScreen.test.tsx&#45;&gt;components/AuthScreen.tsx</title>
<path fill="none" stroke="#757575" d="M264.45,-961.1C297.78,-958.06 333.32,-954.83 365.19,-951.92"/>
<polygon fill="#757575" stroke="#757575" points="365.77,-955.39 375.41,-950.99 365.13,-948.42 365.77,-955.39"/>
</g>
<!-- components/__tests__/AuthScreen.test.tsx&#45;&gt;lib/ThemeContext.tsx -->
<g id="edge47" class="edge">
<title>components/__tests__/AuthScreen.test.tsx&#45;&gt;lib/ThemeContext.tsx</title>
<path fill="none" stroke="#757575" d="M263.48,-984.2C267.27,-986.94 270.8,-990.06 274,-993.61 327.79,-1053.26 252.44,-1659.59 310,-1715.61 357.3,-1761.65 852.82,-1765.29 904,-1723.61 943.61,-1691.35 995.38,-1323.2 1008.09,-1228.64"/>
<polygon fill="#757575" stroke="#757575" points="1011.59,-1228.88 1009.44,-1218.5 1004.65,-1227.95 1011.59,-1228.88"/>
</g>
<!-- components/__tests__/Card.test.tsx -->
<g id="node36" class="node">
<title>components/__tests__/Card.test.tsx</title>
<path fill="none" stroke="#c6c5fe" d="M577.33,-1706.11C577.33,-1706.11 359.67,-1706.11 359.67,-1706.11 355.83,-1706.11 352,-1702.28 352,-1698.44 352,-1698.44 352,-1690.78 352,-1690.78 352,-1686.94 355.83,-1683.11 359.67,-1683.11 359.67,-1683.11 577.33,-1683.11 577.33,-1683.11 581.17,-1683.11 585,-1686.94 585,-1690.78 585,-1690.78 585,-1698.44 585,-1698.44 585,-1702.28 581.17,-1706.11 577.33,-1706.11"/>
<text text-anchor="middle" x="468.5" y="-1690.91" font-family="Arial" font-size="14.00" fill="#c6c5fe">components/__tests__/Card.test.tsx</text>
</g>
<!-- components/__tests__/Card.test.tsx&#45;&gt;lib/ThemeContext.tsx -->
<g id="edge49" class="edge">
<title>components/__tests__/Card.test.tsx&#45;&gt;lib/ThemeContext.tsx</title>
<path fill="none" stroke="#757575" d="M546.75,-1706.17C656.72,-1720.8 850.97,-1739.31 904,-1696.61 941.68,-1666.27 994.57,-1319.35 1007.87,-1228.36"/>
<polygon fill="#757575" stroke="#757575" points="1011.35,-1228.75 1009.33,-1218.35 1004.43,-1227.74 1011.35,-1228.75"/>
</g>
<!-- components/__tests__/Card.test.tsx&#45;&gt;components/Card.tsx -->
<g id="edge48" class="edge">
<title>components/__tests__/Card.test.tsx&#45;&gt;components/Card.tsx</title>
<path fill="none" stroke="#757575" d="M585.16,-1687.59C623.52,-1685.26 665.39,-1682.72 700.66,-1680.58"/>
<polygon fill="#757575" stroke="#757575" points="701.13,-1684.06 710.9,-1679.96 700.71,-1677.07 701.13,-1684.06"/>
</g>
<!-- components/__tests__/ExplainabilityPanel.test.tsx -->
<g id="node37" class="node">
<title>components/__tests__/ExplainabilityPanel.test.tsx</title>
<path fill="none" stroke="#c6c5fe" d="M619.33,-836.11C619.33,-836.11 317.67,-836.11 317.67,-836.11 313.83,-836.11 310,-832.28 310,-828.44 310,-828.44 310,-820.78 310,-820.78 310,-816.94 313.83,-813.11 317.67,-813.11 317.67,-813.11 619.33,-813.11 619.33,-813.11 623.17,-813.11 627,-816.94 627,-820.78 627,-820.78 627,-828.44 627,-828.44 627,-832.28 623.17,-836.11 619.33,-836.11"/>
<text text-anchor="middle" x="468.5" y="-820.91" font-family="Arial" font-size="14.00" fill="#c6c5fe">components/__tests__/ExplainabilityPanel.test.tsx</text>
</g>
<!-- components/__tests__/ExplainabilityPanel.test.tsx&#45;&gt;lib/ThemeContext.tsx -->
<g id="edge51" class="edge">
<title>components/__tests__/ExplainabilityPanel.test.tsx&#45;&gt;lib/ThemeContext.tsx</title>
<path fill="none" stroke="#757575" d="M565.19,-836.14C689.16,-851.45 891.08,-877.81 904,-888.61 996.6,-966.01 1009.4,-1126.42 1010.91,-1184.78"/>
<polygon fill="#757575" stroke="#757575" points="1007.42,-1185.09 1011.09,-1195.03 1014.42,-1184.98 1007.42,-1185.09"/>
</g>
<!-- components/__tests__/ExplainabilityPanel.test.tsx&#45;&gt;types/models.ts -->
<g id="edge52" class="edge">
<title>components/__tests__/ExplainabilityPanel.test.tsx&#45;&gt;types/models.ts</title>
<path fill="none" stroke="#757575" d="M543.91,-813.03C574.49,-804.34 607.29,-789.15 627,-762.61 685.61,-683.66 590.7,-388.25 663,-321.61 741.76,-249.02 802.87,-286.33 904,-321.61 1140.36,-404.07 1278.83,-718.45 1312.44,-803.36"/>
<polygon fill="#757575" stroke="#757575" points="1309.21,-804.71 1316.1,-812.76 1315.74,-802.17 1309.21,-804.71"/>
</g>
<!-- components/__tests__/ExplainabilityPanel.test.tsx&#45;&gt;components/ExplainabilityPanel.tsx -->
<g id="edge50" class="edge">
<title>components/__tests__/ExplainabilityPanel.test.tsx&#45;&gt;components/ExplainabilityPanel.tsx</title>
<path fill="none" stroke="#757575" d="M627.38,-824.61C637.86,-824.61 648.33,-824.61 658.61,-824.61"/>
<polygon fill="#757575" stroke="#757575" points="658.82,-828.11 668.82,-824.61 658.82,-821.11 658.82,-828.11"/>
</g>
<!-- components/__tests__/HeroSection.test.tsx -->
<g id="node38" class="node">
<title>components/__tests__/HeroSection.test.tsx</title>
<path fill="none" stroke="#c6c5fe" d="M599.83,-516.11C599.83,-516.11 337.17,-516.11 337.17,-516.11 333.33,-516.11 329.5,-512.28 329.5,-508.44 329.5,-508.44 329.5,-500.78 329.5,-500.78 329.5,-496.94 333.33,-493.11 337.17,-493.11 337.17,-493.11 599.83,-493.11 599.83,-493.11 603.67,-493.11 607.5,-496.94 607.5,-500.78 607.5,-500.78 607.5,-508.44 607.5,-508.44 607.5,-512.28 603.67,-516.11 599.83,-516.11"/>
<text text-anchor="middle" x="468.5" y="-500.91" font-family="Arial" font-size="14.00" fill="#c6c5fe">components/__tests__/HeroSection.test.tsx</text>
</g>
<!-- components/__tests__/HeroSection.test.tsx&#45;&gt;lib/ThemeContext.tsx -->
<g id="edge54" class="edge">
<title>components/__tests__/HeroSection.test.tsx&#45;&gt;lib/ThemeContext.tsx</title>
<path fill="none" stroke="#757575" d="M478.45,-516.32C503.6,-548.27 578.57,-637.36 663,-678.61 760.76,-726.37 825.52,-646.25 904,-721.61 972.45,-787.34 1002.3,-1098.6 1009.32,-1184.57"/>
<polygon fill="#757575" stroke="#757575" points="1005.84,-1185.05 1010.13,-1194.74 1012.82,-1184.5 1005.84,-1185.05"/>
</g>
<!-- components/__tests__/HeroSection.test.tsx&#45;&gt;lib/sync.ts -->
<g id="edge55" class="edge">
<title>components/__tests__/HeroSection.test.tsx&#45;&gt;lib/sync.ts</title>
<path fill="none" stroke="#757575" d="M539.01,-493.07C570.32,-484.34 605.1,-469.11 627,-442.61 682.3,-375.68 598.3,-308.51 663,-250.61 706.18,-211.97 879.1,-216.56 963.79,-221.35"/>
<polygon fill="#757575" stroke="#757575" points="963.72,-224.85 973.91,-221.94 964.13,-217.86 963.72,-224.85"/>
</g>
<!-- components/__tests__/HeroSection.test.tsx&#45;&gt;components/HeroSection.tsx -->
<g id="edge53" class="edge">
<title>components/__tests__/HeroSection.test.tsx&#45;&gt;components/HeroSection.tsx</title>
<path fill="none" stroke="#757575" d="M607.7,-504.61C631.27,-504.61 655.41,-504.61 677.93,-504.61"/>
<polygon fill="#757575" stroke="#757575" points="678.15,-508.11 688.15,-504.61 678.15,-501.11 678.15,-508.11"/>
</g>
<!-- components/__tests__/ProximityStats.test.tsx -->
<g id="node39" class="node">
<title>components/__tests__/ProximityStats.test.tsx</title>
<path fill="none" stroke="#c6c5fe" d="M605.83,-434.11C605.83,-434.11 331.17,-434.11 331.17,-434.11 327.33,-434.11 323.5,-430.28 323.5,-426.44 323.5,-426.44 323.5,-418.78 323.5,-418.78 323.5,-414.94 327.33,-411.11 331.17,-411.11 331.17,-411.11 605.83,-411.11 605.83,-411.11 609.67,-411.11 613.5,-414.94 613.5,-418.78 613.5,-418.78 613.5,-426.44 613.5,-426.44 613.5,-430.28 609.67,-434.11 605.83,-434.11"/>
<text text-anchor="middle" x="468.5" y="-418.91" font-family="Arial" font-size="14.00" fill="#c6c5fe">components/__tests__/ProximityStats.test.tsx</text>
</g>
<!-- components/__tests__/ProximityStats.test.tsx&#45;&gt;lib/ThemeContext.tsx -->
<g id="edge57" class="edge">
<title>components/__tests__/ProximityStats.test.tsx&#45;&gt;lib/ThemeContext.tsx</title>
<path fill="none" stroke="#757575" d="M538.92,-434.2C570.02,-442.82 604.65,-457.78 627,-483.61 673.85,-537.74 610.66,-591.77 663,-640.61 742.27,-714.59 825.67,-603.62 904,-678.61 978.99,-750.41 1004.39,-1094.76 1009.81,-1184.95"/>
<polygon fill="#757575" stroke="#757575" points="1006.32,-1185.3 1010.4,-1195.08 1013.31,-1184.9 1006.32,-1185.3"/>
</g>
<!-- components/__tests__/ProximityStats.test.tsx&#45;&gt;lib/sync.ts -->
<g id="edge58" class="edge">
<title>components/__tests__/ProximityStats.test.tsx&#45;&gt;lib/sync.ts</title>
<path fill="none" stroke="#757575" d="M539.99,-411.05C570.74,-402.56 604.78,-387.88 627,-362.61 672.27,-311.12 609.16,-255.06 663,-212.61 708.34,-176.86 879.8,-201.15 963.9,-215.78"/>
<polygon fill="#757575" stroke="#757575" points="963.49,-219.26 973.95,-217.55 964.71,-212.37 963.49,-219.26"/>
</g>
<!-- components/__tests__/ProximityStats.test.tsx&#45;&gt;components/ProximityStats.tsx -->
<g id="edge56" class="edge">
<title>components/__tests__/ProximityStats.test.tsx&#45;&gt;components/ProximityStats.tsx</title>
<path fill="none" stroke="#757575" d="M613.63,-422.61C633.22,-422.61 653.06,-422.61 671.93,-422.61"/>
<polygon fill="#757575" stroke="#757575" points="672,-426.11 682,-422.61 672,-419.11 672,-426.11"/>
</g>
<!-- components/__tests__/RiskHeatmap.test.tsx -->
<g id="node40" class="node">
<title>components/__tests__/RiskHeatmap.test.tsx</title>
<path fill="none" stroke="#c6c5fe" d="M603.33,-354.11C603.33,-354.11 333.67,-354.11 333.67,-354.11 329.83,-354.11 326,-350.28 326,-346.44 326,-346.44 326,-338.78 326,-338.78 326,-334.94 329.83,-331.11 333.67,-331.11 333.67,-331.11 603.33,-331.11 603.33,-331.11 607.17,-331.11 611,-334.94 611,-338.78 611,-338.78 611,-346.44 611,-346.44 611,-350.28 607.17,-354.11 603.33,-354.11"/>
<text text-anchor="middle" x="468.5" y="-338.91" font-family="Arial" font-size="14.00" fill="#c6c5fe">components/__tests__/RiskHeatmap.test.tsx</text>
</g>
<!-- components/__tests__/RiskHeatmap.test.tsx&#45;&gt;lib/ThemeContext.tsx -->
<g id="edge60" class="edge">
<title>components/__tests__/RiskHeatmap.test.tsx&#45;&gt;lib/ThemeContext.tsx</title>
<path fill="none" stroke="#757575" d="M544.73,-354.18C574.51,-362.53 606.48,-376.9 627,-401.61 686.1,-472.77 596.5,-542.31 663,-606.61 740.77,-681.8 825.75,-565.93 904,-640.61 984.64,-717.57 1005.98,-1089.73 1010.14,-1184.58"/>
<polygon fill="#757575" stroke="#757575" points="1006.65,-1184.89 1010.57,-1194.73 1013.65,-1184.59 1006.65,-1184.89"/>
</g>
<!-- components/__tests__/RiskHeatmap.test.tsx&#45;&gt;lib/sync.ts -->
<g id="edge61" class="edge">
<title>components/__tests__/RiskHeatmap.test.tsx&#45;&gt;lib/sync.ts</title>
<path fill="none" stroke="#757575" d="M498.75,-331.05C533.21,-316.19 590.38,-287.47 627,-247.61 651.48,-220.97 632.28,-193.71 663,-174.61 765.55,-110.84 917.44,-175.5 981.16,-208.17"/>
<polygon fill="#757575" stroke="#757575" points="979.77,-211.39 990.26,-212.92 983.02,-205.19 979.77,-211.39"/>
</g>
<!-- components/__tests__/RiskHeatmap.test.tsx&#45;&gt;components/RiskHeatmap.tsx -->
<g id="edge59" class="edge">
<title>components/__tests__/RiskHeatmap.test.tsx&#45;&gt;components/RiskHeatmap.tsx</title>
<path fill="none" stroke="#757575" d="M611.35,-342.61C632.52,-342.61 654.05,-342.61 674.37,-342.61"/>
<polygon fill="#757575" stroke="#757575" points="674.56,-346.11 684.56,-342.61 674.56,-339.11 674.56,-346.11"/>
</g>
<!-- lib/__tests__/sync.test.ts -->
<g id="node41" class="node">
<title>lib/__tests__/sync.test.ts</title>
<path fill="none" stroke="#c6c5fe" d="M857.83,-84.11C857.83,-84.11 709.17,-84.11 709.17,-84.11 705.33,-84.11 701.5,-80.28 701.5,-76.44 701.5,-76.44 701.5,-68.78 701.5,-68.78 701.5,-64.94 705.33,-61.11 709.17,-61.11 709.17,-61.11 857.83,-61.11 857.83,-61.11 861.67,-61.11 865.5,-64.94 865.5,-68.78 865.5,-68.78 865.5,-76.44 865.5,-76.44 865.5,-80.28 861.67,-84.11 857.83,-84.11"/>
<text text-anchor="middle" x="783.5" y="-68.91" font-family="Arial" font-size="14.00" fill="#c6c5fe">lib/__tests__/sync.test.ts</text>
</g>
<!-- lib/__tests__/sync.test.ts&#45;&gt;lib/sync.ts -->
<g id="edge63" class="edge">
<title>lib/__tests__/sync.test.ts&#45;&gt;lib/sync.ts</title>
<path fill="none" stroke="#757575" d="M865.78,-82.57C879.15,-86.34 892.41,-91.51 904,-98.61 925.55,-111.81 923.73,-123.28 940,-142.61 958.17,-164.2 979.4,-188.62 993.88,-205.15"/>
<polygon fill="#757575" stroke="#757575" points="991.56,-207.81 1000.79,-213.02 996.82,-203.19 991.56,-207.81"/>
</g>
<!-- lib/__tests__/sync.test.ts&#45;&gt;lib/mockData.ts -->
<g id="edge62" class="edge">
<title>lib/__tests__/sync.test.ts&#45;&gt;lib/mockData.ts</title>
<path fill="none" stroke="#757575" d="M850.03,-84.12C867.76,-87.98 886.8,-92.81 904,-98.61 994.75,-129.23 1095.47,-181.47 1144.26,-208.04"/>
<polygon fill="#757575" stroke="#757575" points="1142.86,-211.26 1153.31,-213 1146.22,-205.12 1142.86,-211.26"/>
</g>
<!-- lib/mockData.ts&#45;&gt;types/models.ts -->
<g id="edge64" class="edge">
<title>lib/mockData.ts&#45;&gt;types/models.ts</title>
<path fill="none" stroke="#757575" d="M1212.38,-236.13C1219.13,-239.78 1225.47,-244.51 1230,-250.61 1297.09,-340.86 1315.96,-709.23 1319.72,-802.88"/>
<polygon fill="#757575" stroke="#757575" points="1316.22,-803.04 1320.1,-812.9 1323.22,-802.77 1316.22,-803.04"/>
</g>
<!-- lib/ghoApi.ts -->
<g id="node43" class="node">
<title>lib/ghoApi.ts</title>
<path fill="none" stroke="#cfffac" d="M1049.33,-1887.11C1049.33,-1887.11 974.67,-1887.11 974.67,-1887.11 970.83,-1887.11 967,-1883.28 967,-1879.44 967,-1879.44 967,-1871.78 967,-1871.78 967,-1867.94 970.83,-1864.11 974.67,-1864.11 974.67,-1864.11 1049.33,-1864.11 1049.33,-1864.11 1053.17,-1864.11 1057,-1867.94 1057,-1871.78 1057,-1871.78 1057,-1879.44 1057,-1879.44 1057,-1883.28 1053.17,-1887.11 1049.33,-1887.11"/>
<text text-anchor="middle" x="1012" y="-1871.91" font-family="Arial" font-size="14.00" fill="#cfffac">lib/ghoApi.ts</text>
</g>
<!-- pages/CommunityReport.tsx&#45;&gt;lib/ThemeContext.tsx -->
<g id="edge66" class="edge">
<title>pages/CommunityReport.tsx&#45;&gt;lib/ThemeContext.tsx</title>
<path fill="none" stroke="#757575" d="M862.76,-1156.14C876.61,-1158.81 890.8,-1161.96 904,-1165.61 928.5,-1172.39 955.19,-1182.61 975.79,-1191.16"/>
<polygon fill="#757575" stroke="#757575" points="974.51,-1194.41 985.09,-1195.07 977.23,-1187.96 974.51,-1194.41"/>
</g>
<!-- pages/HygieneEducation.tsx&#45;&gt;lib/ThemeContext.tsx -->
<g id="edge67" class="edge">
<title>pages/HygieneEducation.tsx&#45;&gt;lib/ThemeContext.tsx</title>
<path fill="none" stroke="#757575" d="M877.74,-1913.13C887.54,-1909.41 896.61,-1904.09 904,-1896.61 1000.39,-1799.06 1009.98,-1334.97 1010.91,-1228.44"/>
<polygon fill="#757575" stroke="#757575" points="1014.41,-1228.28 1010.98,-1218.25 1007.41,-1228.23 1014.41,-1228.28"/>
</g>
<!-- pages/HygieneEducation.tsx&#45;&gt;types/models.ts -->
<g id="edge68" class="edge">
<title>pages/HygieneEducation.tsx&#45;&gt;types/models.ts</title>
<path fill="none" stroke="#757575" d="M833.45,-1928.15C897.64,-1940.26 1010.67,-1950.83 1084,-1896.61 1262.31,-1764.78 1311.87,-986.88 1319.41,-846.36"/>
<polygon fill="#757575" stroke="#757575" points="1322.91,-846.54 1319.93,-836.37 1315.92,-846.18 1322.91,-846.54"/>
</g>
<!-- pages/NationalStats.tsx&#45;&gt;lib/ThemeContext.tsx -->
<g id="edge98" class="edge">
<title>pages/NationalStats.tsx&#45;&gt;lib/ThemeContext.tsx</title>
<path fill="none" stroke="#757575" d="M862.53,-1876.5C877.99,-1873.12 892.86,-1866.78 904,-1855.61 994.85,-1764.54 1008.67,-1331.08 1010.67,-1228.44"/>
<polygon fill="#757575" stroke="#757575" points="1014.17,-1228.38 1010.85,-1218.32 1007.17,-1228.26 1014.17,-1228.38"/>
</g>
<!-- pages/NationalStats.tsx&#45;&gt;lib/ghoApi.ts -->
<g id="edge99" class="edge">
<title>pages/NationalStats.tsx&#45;&gt;lib/ghoApi.ts</title>
<path fill="none" stroke="#757575" d="M862.77,-1875.61C893.74,-1875.61 928.59,-1875.61 956.71,-1875.61"/>
<polygon fill="#757575" stroke="#757575" points="956.75,-1879.11 966.75,-1875.61 956.75,-1872.11 956.75,-1879.11"/>
</g>
<!-- pages/ProfilePage.tsx&#45;&gt;lib/ThemeContext.tsx -->
<g id="edge100" class="edge">
<title>pages/ProfilePage.tsx&#45;&gt;lib/ThemeContext.tsx</title>
<path fill="none" stroke="#757575" d="M857.67,-1067.41C873.66,-1070.62 889.97,-1075.68 904,-1083.61 947.83,-1108.38 982.41,-1158.12 999.44,-1186.16"/>
<polygon fill="#757575" stroke="#757575" points="996.42,-1187.95 1004.52,-1194.78 1002.45,-1184.39 996.42,-1187.95"/>
</g>
<!-- pages/SettingsPage.tsx&#45;&gt;lib/ThemeContext.tsx -->
<g id="edge101" class="edge">
<title>pages/SettingsPage.tsx&#45;&gt;lib/ThemeContext.tsx</title>
<path fill="none" stroke="#757575" d="M862.62,-983.82C877.37,-987.23 891.93,-992.78 904,-1001.61 967.18,-1047.85 996.2,-1142.61 1006.43,-1185.13"/>
<polygon fill="#757575" stroke="#757575" points="1003.05,-1186.01 1008.69,-1194.98 1009.87,-1184.45 1003.05,-1186.01"/>
</g>
<!-- pages/SettingsPage.tsx&#45;&gt;lib/supabase.ts -->
<g id="edge102" class="edge">
<title>pages/SettingsPage.tsx&#45;&gt;lib/supabase.ts</title>
<path fill="none" stroke="#757575" d="M797.9,-968.82C822.26,-946.73 874.03,-896.63 904,-844.61 963.19,-741.89 995.89,-601.51 1006.82,-548.27"/>
<polygon fill="#757575" stroke="#757575" points="1010.29,-548.77 1008.82,-538.28 1003.42,-547.39 1010.29,-548.77"/>
</g>
<!-- pages/Telemedicine.tsx&#45;&gt;lib/ThemeContext.tsx -->
<g id="edge103" class="edge">
<title>pages/Telemedicine.tsx&#45;&gt;lib/ThemeContext.tsx</title>
<path fill="none" stroke="#757575" d="M862.59,-1025.9C877.18,-1029.24 891.69,-1034.49 904,-1042.61 957.2,-1077.72 989.87,-1149.37 1003.54,-1185.2"/>
<polygon fill="#757575" stroke="#757575" points="1000.3,-1186.53 1007.04,-1194.7 1006.87,-1184.11 1000.3,-1186.53"/>
</g>
</g>
</svg>
